<svg xmlns="http://www.w3.org/2000/svg"><symbol id="logo-full" viewBox="0 0 195 79"><path fill-rule="evenodd" clip-rule="evenodd" d="M106.055 71.255l-.374 1.682c5.232-1.993 2.927-6.976-2.429-6.104l-.063-.623v-.872c-.062-.374-.062-.81-.436-1.37-.747-1.184-1.37-1.37-2.553-1.495l.498 1.806c.374 2.678-2.367 4.298-3.862 7.973-1.495-3.675-4.173-5.295-3.862-7.973l.499-1.806c-1.121.187-1.744.311-2.554 1.495-.311.56-.374.996-.436 1.37-.062.436 0 .249 0 .872l-.062.623c-5.357-.872-7.724 4.11-2.43 6.104l-.373-1.682c-.374-2.118 1.183-2.99 2.865-3.052 3.737-.124 4.734 3.613 5.73 6.416.25.311.436.436.623.436s.374-.125.623-.436c.997-2.803 1.993-6.54 5.73-6.416 1.682.062 3.239.934 2.866 3.052zm6.478-65.837c-3.862 1.62-15.634-.56-14.575 1.37 4.173-.81 13.89 2.367 17.129.685 1.868-.996 1.806-2.055 2.927-3.363.997-1.121 2.18-1.557 2.18-1.557-2.927-1.62-3.052.685-3.924.249-.498-.25.374-1.869-1.806-2.741 1.121 2.99.124 4.485-1.931 5.357zM75.72 4.172c1.122 1.308 1.06 2.367 2.928 3.364 3.24 1.681 12.956-1.495 17.13-.685 1.058-1.931-10.714.249-14.576-1.37-2.055-.873-3.052-2.43-1.993-5.295-2.118.872-1.308 2.491-1.806 2.74-.81.374-.997-1.868-3.925-.249.063-.124 1.246.374 2.243 1.495z"/><path fill-rule="evenodd" clip-rule="evenodd" d="M104.746 4.297c1.059-.25 1.308-.81 1.371-1.37.062-.561-.436-1.122-.935-1.309-.311-.124-.685-.062-.809.187-.499.934.685.748.809 1.121.125.499-.56.748-1.557.685-.996-.062-1.993-.498-2.927-.311-2.492.498-3.862 2.118-3.862 2.118.623-.187 2.43-1.121 4.858-.997 1.433 0 2.43.062 3.052-.124z"/><path fill-rule="evenodd" clip-rule="evenodd" d="M89.05 4.297c.686.186 1.62.124 3.053.062 2.429-.125 4.235.872 4.858.996 0 0-1.37-1.619-3.862-2.117-.934-.187-1.93.249-2.927.311-.935.062-1.682-.187-1.558-.685.125-.374 1.308-.187.81-1.121-.124-.25-.498-.312-.81-.187-.498.187-.996.747-.934 1.308 0 .623.311 1.183 1.37 1.433zm16.195 1.058c2.367-.373 3.488.187 5.232-.56 1.495-.623 1.993-1.744 3.239-2.803-1.183.187-2.118 1.433-3.426 1.93-1.121.437-3.612 1.06-4.983 1.309l-.062.124zm-21.925-.56c1.744.685 2.865.187 5.232.56V5.17c-1.432-.25-3.862-.81-4.983-1.308-1.308-.499-2.242-1.682-3.425-1.931 1.183 1.12 1.681 2.304 3.176 2.865zm37.932 51.138c1.433-2.243-.498-3.489-.187-4.05.561-.933 2.305 1.433 3.987-2.055 0 0-1.495.25-3.239-.373-2.056-.748-2.678-1.931-5.17-1.869-4.298.125-11.523 9.405-16.132 11.087.311 2.74 10.215-6.727 15.073-7.287 2.616-.312 4.609.81 5.668 4.547zm-28.216 2.74c-4.609-1.682-11.834-10.962-16.132-11.087-2.492-.062-3.177 1.121-5.17 1.869-1.744.623-3.239.373-3.239.373 1.682 3.488 3.426 1.122 3.986 2.056.312.56-1.619 1.806-.186 4.049.996-3.8 3.052-4.859 5.668-4.547 4.796.622 14.7 10.028 15.073 7.287z"/><path fill-rule="evenodd" clip-rule="evenodd" d="M106.615 61.351c.249.25.685.063.934-.187.436-.436.561-1.37.187-1.993-.374-.623-.997-1.12-2.18-.934-.748.125-1.744.623-3.177 1.37-2.429 1.308-4.858 1.06-5.606 1.184 0 0 2.367 1.183 5.233.56 1.058-.249 1.868-1.245 2.865-1.806.934-.56 1.806-.623 1.993.062.062.499-1.308.872-.249 1.744zm-18.624-3.114c-1.246-.187-1.868.311-2.18.934-.374.623-.187 1.495.187 1.993.25.25.623.436.934.187.997-.872-.311-1.245-.187-1.681.125-.623 1.06-.56 1.994-.063.996.56 1.744 1.557 2.865 1.807 2.865.623 5.232-.56 5.232-.56-.748-.126-3.114.124-5.606-1.184-1.495-.81-2.43-1.308-3.239-1.433zm26.41-3.799c1.619-.25 3.363.498 4.671 0-1.931-.437-3.239-1.309-5.107-1.06-2.18.312-2.928 1.558-5.482 2.554l.125.125c1.619-.623 4.422-1.433 5.793-1.62zm-39.988 0c1.308.498 3.052-.25 4.672 0 1.432.249 4.235 1.058 5.73 1.62l.125-.126c-2.554-.996-3.24-2.242-5.482-2.553-1.806-.312-3.114.623-5.045 1.059zm16.133.373a41.764 41.764 0 006.29 3.55l.063.063.062-.062c18.375-8.16 23.856-24.915 24.167-43.913v-.124l-.124-.063c-14.575-7.225-33.51-6.54-48.148 0l-.125.063v.124c0 15.447 4.61 31.144 17.815 40.362zm29.15-39.552c-.436 17.752-5.544 33.635-22.735 41.545C80.58 49.205 74.413 32.388 74.29 15.321c13.89-5.98 31.579-6.602 45.407-.062z"/><path fill-rule="evenodd" clip-rule="evenodd" d="M96.96 55.932c16.506-7.723 21.489-23.046 21.988-40.175-13.392-6.166-30.396-5.543-43.85.063.186 16.443 6.104 32.638 21.862 40.112zm21.116-39.676c-.561 16.506-5.357 31.205-21.116 38.804-15.01-7.35-20.741-22.859-21.115-38.742 13.018-5.232 29.275-5.793 42.231-.062zM45.761 57.552c1.37-.498 1.06-.312 2.243-.436-.125.373-1.682 3.239.124 2.553 2.616-.996 3.55-2.429 7.225-2.18 3.302.187 5.606 1.37 8.036 3.053 2.553 1.806 5.668 3.052 8.969 3.612 3.862.685 6.976.125 11.398-2.616-.56-.56-.56-1.557-.436-2.055-4.235 2.429-6.727 2.99-10.401 1.93-2.99-.871-5.606-2.865-7.226-4.484a23.228 23.228 0 00-2.242-1.993c-2.865-2.367-6.478-4.983-10.215-5.481-1.869-.25-3.052-.499-5.045-.374-.561.062-1.246 0-1.495.685.498.436.747.436 1.432.623l-1.868.685h-.063c-.81.311-3.052 1.62-3.612 2.242-.56.623-.187.25-.187.436.374-.373 1.059-.623 1.557-.747l.25-.063c4.733-1.432 10.463-.622 15.073 1.682 1.62.81 3.924 2.305 6.042 4.173.249.25.124.499-.125.312-2.43-2.305-7.475-4.983-10.9-5.793-3.738-.872-8.222-.872-11.212.623l-.685.312c-1.246.747-1.682.996-2.242 2.491-.25.685-.499 1.993-.499 2.74 0 .686.187 1.745.374 2.43.311-.187 1.806-2.99 5.73-4.36zm82.343-.623c-1.619 1.62-4.235 3.613-7.225 4.485-3.737 1.12-6.229.498-10.402-1.931.125.498.125 1.495-.436 2.055 4.422 2.74 7.537 3.301 11.399 2.616a22.884 22.884 0 008.969-3.612c2.429-1.682 4.734-2.866 8.035-3.053 3.675-.249 4.671 1.184 7.225 2.18 1.744.686.249-2.18.125-2.553 1.245.187.872 0 2.242.436 3.924 1.308 5.419 4.173 5.793 4.36.187-.685.373-1.744.373-2.43 0-.747-.186-2.055-.498-2.74-.56-1.495-.934-1.744-2.242-2.491l-.685-.312c-2.99-1.495-7.537-1.495-11.212-.623-3.426.81-8.471 3.426-10.9 5.793-.249.187-.374-.125-.125-.312 2.118-1.868 4.423-3.363 6.042-4.173 4.609-2.304 10.34-3.114 15.074-1.681l.249.062c.498.124 1.121.436 1.557.747 0-.187.374.125-.187-.436-.561-.623-2.865-1.93-3.613-2.242h-.062l-1.869-.685c.686-.187.872-.187 1.433-.623-.311-.685-.997-.623-1.495-.685-1.993-.125-3.176.124-5.045.373-3.8.499-7.35 3.115-10.215 5.482-.872.56-1.557 1.245-2.305 1.993zM54.793 34.132c.498-1.744 1.308-3.176 2.43-4.671.684-.872 2.989-3.302 3.923-3.052-.436.498-1.432 1.058-1.93 1.557-1.309 1.245-2.243 2.304-3.053 3.986l-.623 1.433c-.498 1.557-.685 2.616-.685 4.235 0 1.993.436 3.8 1.37 5.668.499 1.06 1.744 2.492 2.492 3.364-.125-.81-.25-2.74.187-4.423-2.18-1.681-1.807-5.232-1.06-7.599.312-1.059.935-2.18 1.745-3.239 1.495-1.993 2.305-2.429 4.236-3.363.498-.25.747 0 1.058-.25.312-.31.374-.497.935-.747 1.744-.81 2.491.312 2.865.436-.312-.622-.374-.685-.872-.996-1.059-.56-2.118-.623-3.301-.56.311-.375 1.557-.25 1.93-.25 1.184.125 2.928.872 2.741 2.367-.062.56-.311 1.433-.872 1.682-.56.249-.498.187-.436.062.25-.374.374-.187.623-.685.25-.56.062-.685-.125-1.184-.436-.934-2.242-1.245-3.176.25-1.37 2.367 1.744 4.92 4.422 2.553.56-.498.997-1.308 1.121-1.93.187-.623.25-1.558-.062-2.243-.747-1.62-.934-2.118-2.803-3.052-.498-.25-.685-.311-1.308-.436s-.747-.125-1.37-.187c-3.177-.124-6.353 1.744-8.284 4.36-.561.81-.997 1.62-1.308 2.43-.499 1.12-1.246 4.422-.935 5.605-.062-.062.063-.747.125-1.12zm82.28-6.727c-1.931-2.616-5.107-4.485-8.284-4.36-.623 0-.81.062-1.37.187-.561.124-.748.187-1.308.436-1.869.934-2.056 1.432-2.803 3.052-.312.685-.249 1.62-.062 2.242.186.623.56 1.433 1.121 1.931 2.678 2.367 5.792-.249 4.422-2.554-.872-1.495-2.741-1.183-3.177-.249-.249.436-.373.56-.124 1.184.187.498.374.311.623.685.062.124.124.249-.436-.063-.561-.249-.81-1.12-.872-1.681-.187-1.495 1.557-2.18 2.74-2.367.436-.062 1.62-.187 1.931.249-1.183-.062-2.242 0-3.301.56-.498.312-.561.312-.872.997.374-.187 1.121-1.246 2.865-.436.561.25.561.498.935.748.311.311.56.062 1.058.249 1.931.934 2.679 1.37 4.236 3.363a11.8 11.8 0 011.744 3.24c.747 2.366 1.121 5.916-1.059 7.598.498 1.682.374 3.55.187 4.423.685-.872 1.993-2.305 2.491-3.364.872-1.869 1.371-3.675 1.371-5.668 0-1.682-.187-2.678-.685-4.236l-.623-1.432c-.81-1.682-1.744-2.74-3.052-3.987-.561-.498-1.495-1.058-1.931-1.557.872-.249 3.239 2.18 3.924 3.052 1.121 1.433 1.931 2.928 2.429 4.672.125.311.187 1.059.374 1.308.311-1.184-.436-4.485-.935-5.606-.622-.997-.996-1.806-1.557-2.616z"/><path fill-rule="evenodd" clip-rule="evenodd" d="M63.388 50.514c.997 2.616 4.672 5.294 5.045 5.107-.062-.436-2.553-1.869-2.242-6.229.062-.747.312-1.868.56-2.553.063-.187.125-.312.188-.561.062-.25.124-.374.249-.623.124-.374.187-.311.124-.623-1.62-.498-1.62.374-2.055.748.124-.187.062-.312.187-.499.436-.81.747-.187 1.495-1.308.81-1.245 1.806-5.73.81-6.789-1.246 2.118-4.236.934-5.918 4.111a3.237 3.237 0 00-.187.311c-.124 0 .312-1.308.436-1.494.498-1.246-.81-1.62-1.121-.935-1.557 4.298-2.554 12.27 4.298 14.825-.499-.748-1.308-1.433-1.807-2.43-1.12-2.055-1.744-6.228-.56-8.284-.125.685-.25.997-.312 1.744-.186 1.807.125 3.675.81 5.482zm67.021 0c.685-1.807.996-3.675.809-5.544-.062-.685-.187-1.059-.311-1.744 1.183 2.055.56 6.229-.561 8.284-.498.997-1.308 1.682-1.806 2.43 6.851-2.617 5.855-10.527 4.298-14.825-.312-.685-1.682-.374-1.121.934.124.187.622 1.433.436 1.495 0 0-.063-.062-.187-.311-1.682-3.177-4.672-1.993-5.918-4.111-.996 1.121-.062 5.543.81 6.79.748 1.12 1.059.497 1.495 1.307.125.25.125.312.187.498-.436-.373-.436-1.245-2.056-.747 0 .25 0 .25.125.623.062.249.125.374.249.623.062.249.125.436.187.56.249.685.498 1.807.561 2.554.311 4.36-2.18 5.793-2.243 6.229.374.249 4.049-2.43 5.046-5.045zM56.786 26.408c.436-.498.872-1.058 1.433-1.432 2.242-1.806 3.114-1.682 4.048-2.242.685-.437 1.121-.81 1.931-1.184 1.931-.872 2.305-1.433 3.301-2.74.063 1.868-3.239 2.927-4.235 3.674l1.993-.062c.872.062 1.059.311 1.993-.374.623-.436 1.184-.934 1.806-1.37.748-.498.997-.934 1.184-1.495-.25-.249-.56.125-.498-.187.186-.249.872-.996 1.308-1.62.311-.435.872-1.37.124-1.868-.623-.187-1.744.872-2.18 1.246.374-1.184.623 0 1.06-2.242.435-2.243-1.247-4.423-3.053-4.236.436.623.56.498.997 1.433.747 1.557.498 2.99-.374 4.484-2.74 4.672-8.72 4.983-11.585 9.468-.561.872-1.745 2.99-1.184 4.049.748-1.558.872-1.931 1.931-3.302zm67.456-7.474c.125.311-.249-.062-.498.187.187.623.436 1.059 1.183 1.557.623.436 1.184.934 1.807 1.37.934.686 1.121.436 1.993.374l1.993.062c-.996-.81-4.235-1.806-4.235-3.675.996 1.308 1.37 1.87 3.301 2.741.81.374 1.246.748 1.931 1.184.872.56 1.806.436 4.048 2.242.499.436.997.934 1.433 1.433 1.059 1.37 1.183 1.744 1.869 3.176.56-1.059-.561-3.177-1.184-4.049-2.927-4.484-8.907-4.796-11.585-9.467-.872-1.495-1.121-2.928-.374-4.485.436-.934.561-.747.997-1.432-1.807-.187-3.488 1.993-3.052 4.235.436 2.242.685 1.059 1.058 2.242-.436-.373-1.557-1.494-2.18-1.245-.747.498-.186 1.432.125 1.868.498.686 1.246 1.433 1.37 1.682zM70.489 34.008c-.934.186-1.682 1.12-1.806 1.93-.063.499.124.997.622 1.06 1.744.31.935-1.371 1.557-1.682.748-.437 1.495.56 1.745 1.93.311 1.433 0 3.115.685 4.36 1.868 3.426 5.045 4.734 5.045 4.734-.498-.81-2.803-2.99-3.675-6.602-.498-2.056-.81-3.488-1.37-4.36-.81-1.37-1.869-1.495-2.803-1.37zm50.016 7.598c.685-1.245.374-2.927.685-4.36.249-1.37.997-2.367 1.744-1.93.561.31-.187 1.93 1.557 1.681.499-.062.686-.56.623-1.059-.124-.81-.872-1.744-1.806-1.93-.934-.188-1.993 0-2.865 1.37-.561.872-.872 2.304-1.371 4.36-.809 3.55-3.114 5.793-3.675 6.602 0 .063 3.239-1.308 5.108-4.734zm-19.06 33.511c11.523 6.602 18.313-8.658 36.314-8.845-19.309-7.786-22.05 9.53-36.314 8.845z"/><path fill-rule="evenodd" clip-rule="evenodd" d="M171.705 73.56c-24.791-12.27-37.435-5.42-55.809 2.99 18.748-1.308 24.416-10.465 55.809-2.99z"/><path fill-rule="evenodd" clip-rule="evenodd" d="M134.582 75.241c20.742.623 49.643 4.672 60.418 2.616-18.499-.124-43.227-9.156-60.418-2.616zm-77.298-8.969c18.001.187 24.79 15.385 36.313 8.845-14.263.685-17.004-16.63-36.313-8.845z"/><path fill-rule="evenodd" clip-rule="evenodd" d="M23.338 73.56c31.392-7.475 37.06 1.681 55.809 2.99-18.375-8.41-31.019-15.26-55.81-2.99z"/><path fill-rule="evenodd" clip-rule="evenodd" d="M.104 77.857c10.776 2.056 39.677-1.993 60.419-2.616-17.254-6.54-41.92 2.492-60.419 2.616z"/><path d="M100.947 20.865c0 .187-.125.436-.436.81-.311.373-.81.81-1.557 1.37-.623.498-1.184.934-1.682 1.246a49.98 49.98 0 01-1.246.872c-.373.249-.685.498-.996.685-.312.187-.623.436-.997.747.125.25.312.685.436 1.246.187.56.312 1.121.499 1.744l.373 1.308c.125.436.25.81.374 1.184.124.373.311.622.498.81.187.186.374.31.56.31.188 0 .374-.062.624-.124.249-.062.373-.187.56-.374l.125.187c-.063.063-.125.187-.312.312a4.47 4.47 0 01-.56.498c-.187.187-.436.311-.685.436-.25.125-.436.187-.686.187-.249 0-.498-.063-.685-.25-.186-.186-.311-.435-.498-.747-.125-.311-.25-.685-.374-1.12a16.585 16.585 0 00-.436-1.371c-.062-.187-.187-.498-.249-.872s-.187-.748-.311-1.121c-.125-.374-.25-.748-.374-1.06-.125-.31-.25-.56-.374-.622-.249.623-.498 1.308-.747 1.93-.187.561-.436 1.122-.685 1.683-.25.56-.436 1.12-.623 1.557-.125.249-.187.436-.25.623a1.003 1.003 0 01-.249.436c-.062.124-.124.186-.186.311a.86.86 0 01-.25.187c-.186.124-.373.187-.56.311-.187.063-.374.125-.498.125-.125 0-.187 0-.187-.063 0-.062-.063-.062-.063-.124s.063-.187.125-.374.25-.498.436-.872c.311-.685.623-1.308.81-1.806.249-.498.436-1.059.623-1.495l.56-1.495c.187-.498.436-1.059.685-1.682.187-.498.374-.996.623-1.557.187-.56.374-.996.56-1.495.188-.436.312-.872.437-1.183.124-.312.187-.56.249-.623-.125 0-.311 0-.436-.062-.125 0-.25 0-.374-.063h-.373c-.437 0-.997 0-1.62.063-.623.062-1.308.124-2.055.311-.748.187-1.557.498-2.43.872-.872.374-1.806.934-2.74 1.62-.374.249-.748.56-.997.872-.311.311-.56.56-.81.872-.186.311-.373.56-.498.81a1.661 1.661 0 00-.187.747c0 .124 0 .187.063.311.062.125.186.125.373.125s.312 0 .374-.062a3.03 3.03 0 01.436-.187v.249c-.25.311-.623.498-.934.685-.374.125-.685.187-.872.187-.499 0-.81-.25-.81-.748 0-.373.125-.747.436-1.183.311-.436.623-.872 1.059-1.308.436-.436.872-.81 1.37-1.184a30.26 30.26 0 011.308-.934 18.612 18.612 0 012.928-1.495c.934-.373 1.806-.685 2.678-.872a19.285 19.285 0 012.43-.373c.747-.063 1.494-.063 2.117-.063.187 0 .436 0 .685.063.25.062.436.062.56.062l-2.49 6.104c.435-.312.871-.623 1.183-.872.311-.25.685-.498.996-.748.312-.249.685-.498.997-.747.311-.25.747-.56 1.183-.872.187-.125.374-.311.623-.498l.56-.56c.188-.188.312-.375.437-.5.124-.186.187-.31.187-.497 0-.125-.063-.25-.187-.25-.125-.062-.187-.062-.25-.062v-.124c.374-.187.748-.374 1.122-.436.374-.063.623-.125.81-.125.124 0 .186 0 .311.062.374-.124.436 0 .436.125z" fill="currentColor"/><path d="M107.113 36.935c0 1.93-1.495 3.924-4.609 3.924-.436 0-2.242-.125-2.429-.125-.062 0-1.246.063-1.806.063-.187 0-.312-.063-.312-.125s.062-.124.125-.124c.187 0 .374 0 .56-.063.312-.062.374-.249.499-.81.062-.498.124-1.93.124-4.173v-3.176c0-3.052 0-3.8-.062-4.111-.062-.436-.187-.686-.748-.81-.124-.062-.436-.062-.622-.062a.134.134 0 01-.125-.125c0-.125.062-.125.311-.125.81 0 1.931.063 2.056.063.436 0 1.121-.063 1.993-.063 2.99 0 3.613 1.807 3.613 2.741 0 1.495-.872 2.367-1.682 3.24 1.308.435 3.114 1.743 3.114 3.86zm-6.353-4.111c0 .125.062.187.125.187.124 0 .436.062 1.121.062.996 0 1.246-.062 1.619-.498.374-.436.623-1.06.623-1.807 0-1.494-.685-3.114-2.429-3.114-.187 0-.561 0-.872.062-.187.063-.187.063-.187.187v4.92zm0 5.294c0 1.37.062 1.682.623 1.931.498.25 1.246.25 1.619.25.997 0 2.554-.499 2.554-2.554 0-1.06-.374-2.679-1.744-3.675-.685-.499-1.308-.56-1.931-.56-1.059 0-1.059 0-1.059.124v4.484h-.062z" fill="currentColor"/></symbol><symbol id="logo-left" viewBox="0 0 304 222"><path fill-rule="evenodd" clip-rule="evenodd" d="M302 157.406c-14.838-5.37-38.096-35.001-51.931-35.398-8.021-.199-10.226 3.579-16.643 5.966-5.614 1.988-10.426 1.193-10.426 1.193 5.414 11.136 11.028 3.579 12.833 6.562 1.002 1.79-5.214 5.767-.602 12.927 3.208-12.131 9.825-15.512 18.246-14.518 15.439 1.989 47.32 32.018 48.523 23.268z"/><path fill-rule="evenodd" clip-rule="evenodd" d="M242 143.682c4.225 1.636 9.858-.818 15.089 0 4.627.818 13.68 3.477 18.509 5.318l.402-.409c-8.249-3.273-10.462-7.364-17.704-8.386-5.834-1.023-10.059 2.045-16.296 3.477zm-93.206 9.979c4.443-1.621 3.433-1.013 7.271-1.418-.404 1.215-5.453 10.534.404 8.306 8.483-3.242 11.513-7.901 23.429-7.091 10.705.608 18.178 4.457 26.055 9.927 8.281 5.876 18.38 9.927 29.085 11.751 12.523 2.228 22.622.405 36.962-8.509-1.818-1.824-1.818-5.065-1.414-6.686-13.734 7.901-21.813 9.725-33.73 6.281-9.695-2.837-18.178-9.32-23.429-14.587-2.222-2.229-4.646-4.457-7.272-6.483-9.291-7.699-21.005-16.208-33.124-17.829-6.059-.81-9.897-1.62-16.36-1.215-1.818.202-4.04 0-4.848 2.228 1.616 1.418 2.424 1.418 4.646 2.026l-6.059 2.229h-.202c-2.626 1.013-9.897 5.267-11.715 7.293-1.818 2.026-.606.811-.606 1.418 1.212-1.215 3.434-2.026 5.049-2.431l.808-.202c15.351-4.66 33.933-2.026 48.879 5.47 5.251 2.633 12.724 7.496 19.592 13.574.808.81.404 1.62-.404 1.013-7.877-7.496-24.238-16.208-35.346-18.842-12.119-2.836-26.661-2.836-36.356 2.026l-2.222 1.013c-4.04 2.431-5.453 3.242-7.271 8.104-.808 2.229-1.616 6.483-1.616 8.914 0 2.229.606 5.673 1.212 7.901 1.01-.607 5.857-9.724 18.582-14.181zm28.85-75.693c1.621-5.716 4.254-10.41 7.899-15.31 2.228-2.858 9.722-10.82 12.76-10.003-1.418 1.633-4.658 3.47-6.279 5.104-4.253 4.082-7.291 7.553-9.924 13.064l-2.025 4.696c-1.621 5.103-2.228 8.573-2.228 13.881 0 6.532 1.418 12.452 4.456 18.577 1.62 3.47 5.671 8.165 8.101 11.023-.405-2.654-.81-8.982.608-14.494-7.089-5.511-5.874-17.147-3.443-24.905 1.012-3.47 3.038-7.144 5.671-10.615 4.86-6.532 7.493-7.961 13.772-11.023 1.62-.817 2.431 0 3.443-.817 1.013-1.02 1.215-1.633 3.038-2.45 5.671-2.653 8.102 1.021 9.317 1.43-1.013-2.042-1.215-2.246-2.836-3.267-3.443-1.837-6.886-2.041-10.734-1.837 1.013-1.225 5.063-.816 6.279-.816 3.848.408 9.519 2.857 8.911 7.757-.202 1.837-1.012 4.695-2.835 5.511-1.823.817-1.621.613-1.418.205.81-1.225 1.215-.613 2.025-2.246.81-1.837.203-2.245-.405-3.879-1.417-3.062-7.291-4.082-10.329.817-4.456 7.757 5.671 16.127 14.38 8.37 1.823-1.633 3.241-4.287 3.646-6.329.607-2.041.81-5.103-.203-7.349-2.43-5.307-3.038-6.94-9.114-10.002-1.62-.817-2.228-1.021-4.253-1.43-2.026-.408-2.431-.408-4.456-.612-10.329-.408-20.659 5.716-26.937 14.29-1.823 2.654-3.241 5.308-4.254 7.961-1.62 3.675-4.05 14.494-3.038 18.373-.202-.204.203-2.45.405-3.675z"/><path fill-rule="evenodd" clip-rule="evenodd" d="M205.589 131.357c3.242 8.509 15.195 17.221 16.411 16.613-.203-1.418-8.307-6.078-7.294-20.26.203-2.431 1.013-6.078 1.824-8.307.202-.608.405-1.013.608-1.823.202-.811.405-1.216.81-2.026.405-1.216.608-1.013.405-2.026-5.267-1.621-5.267 1.215-6.686 2.431.406-.608.203-1.013.608-1.621 1.418-2.634 2.431-.608 4.863-4.254 2.633-4.052 5.875-18.64 2.633-22.084-4.052 6.888-13.776 3.039-19.247 13.372a10.326 10.326 0 00-.607 1.013c-.406 0 1.013-4.255 1.418-4.863 1.621-4.052-2.634-5.267-3.647-3.039-5.065 13.98-8.307 39.913 13.979 48.219-1.62-2.431-4.254-4.66-5.875-7.901-3.647-6.686-5.673-20.26-1.823-26.946-.406 2.229-.811 3.242-1.013 5.673-.608 5.875.405 11.953 2.633 17.829zm-20.925-78.222c1.399-1.64 2.797-3.486 4.595-4.716 7.191-5.945 9.988-5.535 12.984-7.38 2.198-1.435 3.596-2.665 6.193-3.895 6.192-2.87 7.391-4.715 10.587-9.02.2 6.15-10.388 9.635-13.584 12.095l6.393-.205c2.796.205 3.396 1.025 6.392-1.23 1.998-1.435 3.795-3.075 5.793-4.51 2.397-1.64 3.196-3.076 3.796-4.92-.8-.82-1.798.41-1.599-.616.6-.82 2.797-3.28 4.195-5.33.999-1.435 2.797-4.51.4-6.15-1.998-.615-5.593 2.87-6.992 4.1 1.199-3.895 1.998 0 3.396-7.38 1.399-7.38-3.995-14.556-9.788-13.941 1.398 2.05 1.798 1.64 3.196 4.715 2.397 5.125 1.598 9.84-1.198 14.76-8.79 15.377-27.967 16.402-37.156 31.162-1.798 2.87-5.593 9.84-3.795 13.326 2.397-5.125 2.796-6.355 6.192-10.865zm44.354 23.989c-3.093.619-5.567 3.716-5.98 6.4-.206 1.65.413 3.302 2.062 3.509 5.774 1.032 3.093-4.542 5.155-5.574 2.475-1.445 4.949 1.858 5.774 6.4 1.031 4.748 0 10.322 2.268 14.451C244.484 113.665 255 118 255 118c-1.65-2.684-9.279-9.909-12.166-21.883-1.65-6.813-2.681-11.561-4.537-14.452-2.68-4.541-6.186-4.954-9.279-4.541zM186 182.618c58.494.613 80.556 50.482 118 29.022-46.35 2.248-55.256-54.57-118-29.022z"/><path fill-rule="evenodd" clip-rule="evenodd" d="M76 206.099c101.813-24.753 120.195 5.569 181 9.901-59.593-27.847-100.6-50.537-181-9.901z"/><path fill-rule="evenodd" clip-rule="evenodd" d="M0 220.134c35.135 6.646 129.37-6.444 197-8.457-56.257-21.145-136.681 8.055-197 8.457z"/></symbol><symbol id="logo-footer" viewBox="0 0 145 13"><path fill-rule="evenodd" clip-rule="evenodd" d="M105.009 1.943c.301.376.452.752.301 1.204-.526 2.407 3.084.075.828-1.881-3.009-2.783-8.5.903-11.058 3.009-3.535 2.557-2.106 1.58-5.115 2.332-1.053.225-2.106.601-2.933 1.429.3.075.602-.075.978-.075.376-.076.601-.076.902-.15.527-.076 1.354-.227 1.88.15-1.504 1.805-3.384.45-3.083 2.407-3.235-.226-4.965-2.859-3.686-3.686.527-.376 2.407-.376 1.956-1.354-.677-1.279-3.536.376-3.009 2.858.526 2.106 2.858 2.182 4.513 2.482-.451.452-.827.377-1.279.377-1.053 0-.526.3-.677.902-3.008 1.128-6.844.903-9.402-1.203-1.73-1.505-2.257-3.987-1.88-5.867.15-.753.752-1.806 1.278-2.483C76.802.89 79.284.664 80.79 1.943c.752.602 1.053 2.633.45 3.385l-.45.526c-.677.828-3.31.828-2.031-.677.225-.3.752-.376.601-.977-.225-.978-1.654-.828-2.18-.15-.904 1.127.15 3.685 2.632 2.857 1.58-.526 2.407-1.654 2.181-3.31-.226-1.955-1.73-3.083-3.836-3.158h-1.58c-.601 0-1.354-.301-1.805.3-.451.602-.226 1.354-.3 1.881-.527.15-1.355.075-1.656.978-.075.3 0 .677.076.978.225.677.676.677.526 1.354-.075.15-.075.3-.15.526-.076.376-.15.602-.15.978 0 .827.3 1.053.902 1.73 1.203 1.504 1.805 2.181 3.385 3.009 3.61 1.655 7.898 1.128 11.132-1.279 2.407-1.88 13.54-12.486 16.473-8.951zm-64.539 0c-.3.376-.451.752-.3 1.204.526 2.407-3.085.075-.828-1.881 3.009-2.783 8.5.903 11.057 3.009 3.536 2.557 2.182 1.58 5.115 2.332 1.053.225 2.106.601 2.934 1.429-.301.075-.602-.075-.978-.075-.376-.076-.602-.076-.978-.15-.526-.076-1.354-.227-1.88.15 1.504 1.805 3.384.45 3.084 2.407 3.234-.226 4.964-2.859 3.685-3.686-.526-.376-2.407-.376-1.955-1.354.677-1.279 3.535.376 3.008 2.858-.526 2.106-2.858 2.182-4.513 2.482.452.452.828.377 1.279.377 1.053 0 .526.3.677.902 3.009 1.128 6.845.903 9.402-1.203 1.73-1.505 2.257-3.987 1.88-5.867-.15-.753-.751-1.806-1.278-2.483-1.279-1.504-3.76-1.73-5.265-.451-.752.602-1.053 2.633-.452 3.385l.452.526c.677.828 3.31.828 2.03-.677-.225-.3-.752-.376-.601-.977.226-.978 1.655-.828 2.181-.15.903 1.127-.15 3.685-2.632 2.857-1.58-.526-2.407-1.654-2.182-3.31.226-1.955 1.73-3.083 3.836-3.158h1.58c.602 0 1.354-.301 1.805.3.452.602.226 1.354.301 1.881.527.15 1.43.075 1.655.978.075.3 0 .677-.075.978-.226.677-.677.677-.527 1.354.076.15.076.3.15.526.076.376.151.602.151.978 0 .827-.3 1.053-.903 1.73-1.203 1.504-1.805 2.181-3.384 3.009-3.61 1.655-7.898 1.128-11.133-1.279-2.332-1.88-13.464-12.486-16.398-8.951z"/><path fill-rule="evenodd" clip-rule="evenodd" d="M47.992.288c.828.15 3.385 1.504 6.319.752 1.73-.3 3.008-.677 3.911-.526 1.354.15 1.88.978 2.031 1.73.15.752-.3 1.655-.903 2.03-.376.226-.827.226-1.053-.15-.827-1.278.753-1.203.753-1.73.075-.752-.903-.978-2.107-.677-3.46.752-5.49 1.956-8.95-1.429zm49.796 0c-.828.15-3.385 1.504-6.319.752-1.73-.3-3.008-.677-3.836-.526-1.354.15-1.88.978-2.03 1.73-.151.752.3 1.655.902 2.03.376.226.827.226 1.053-.15.827-1.278-.752-1.203-.752-1.73-.075-.752.903-.978 2.106-.677 3.31.752 5.34 1.956 8.876-1.429zM.98 2.394l23.093-.376 23.017-.376v1.58l-23.017-.376L.98 2.394zm143.068 0l-22.867-.376-22.942-.376v1.58l22.942-.452 22.867-.376z"/></symbol><symbol id="logo-name" viewBox="0 0 266 24"><path d="M15.946.427h.978l1.73 6.393-1.279.376c-.677-1.504-1.203-2.482-1.58-2.933-.601-.828-1.278-1.43-2.18-1.956a6.158 6.158 0 00-2.859-.677c-1.203 0-2.407.301-3.385.978-1.053.677-1.88 1.655-2.557 2.934-.677 1.278-.978 2.707-.978 4.362 0 1.655.3 3.084.978 4.438.677 1.279 1.504 2.257 2.632 3.009 1.129.677 2.332 1.053 3.61 1.053 1.204 0 2.483-.376 3.762-1.053a9.445 9.445 0 003.31-2.934l1.128.753c-.602.827-1.204 1.58-1.805 2.106-1.053.978-2.107 1.654-3.235 2.106-1.128.451-2.332.677-3.686.677-3.008 0-5.415-1.129-7.22-3.31C1.804 14.944.977 12.763.977 10.205c0-1.88.45-3.535 1.278-5.04.828-1.504 2.031-2.707 3.536-3.61S8.876.2 10.606.2c.902 0 1.805.15 2.557.376s1.58.677 2.407 1.204l.376-1.354zM41.37 1.63h-.3c-.602 0-1.129.15-1.355.376a4.23 4.23 0 00-.752 1.053L32.494 16.9c-.677 1.43-1.278 2.257-1.955 2.558-.677.3-1.354.451-2.107.451-.902 0-1.58-.225-2.18-.601-.603-.377-.903-.903-.903-1.505 0-.376.075-.602.3-.902.226-.301.527-.377.903-.377.226 0 .451.076.602.15.15.076.451.377.827.828.376.452.828.677 1.204.677s.752-.15 1.053-.376c.3-.226.677-.902 1.053-1.805l.902-1.956L25.35 3.134c-.452-.752-.828-1.203-1.054-1.278-.225-.15-.752-.226-1.504-.226V.502h7.146V1.63h-.828c-.752 0-1.128.226-1.128.602 0 .3.15.677.376 1.053l5.04 8.048 3.76-8.123c.227-.452.302-.828.302-1.053 0-.226-.075-.377-.226-.452-.15-.075-.451-.075-.902-.075h-.753V.502h5.792V1.63zm6.243 0V.502h15.42V1.63h-.601c-.677 0-1.129.15-1.354.376-.226.226-.301.752-.301 1.504V16.6c0 .902.075 1.429.3 1.58.226.225.753.3 1.58.3h.452l1.654 4.664-1.203.451c-.376-1.128-.978-2.03-1.655-2.633-.677-.601-1.354-.977-1.88-1.128-.602-.15-1.58-.226-3.01-.226h-7.973c-1.504 0-2.557.076-3.234.301-.677.226-1.279.602-1.88 1.204-.602.602-1.053 1.429-1.43 2.407l-1.203-.451 1.655-4.664c.752 0 1.354-.075 1.655-.226.3-.15.677-.376.902-.677.301-.3.452-.752.602-1.203l3.836-12.411c.15-.452.226-.753.226-1.054 0-.827-.602-1.278-1.806-1.278h-.752v.075zm10.531.3h-5.792L47.84 16.6c-.15.376-.15.601-.15.752 0 .3.15.526.376.602.225.075.677.15 1.354.15h6.92c.677 0 1.128-.075 1.354-.15.225-.076.376-.226.376-.377 0-.15.075-.677.075-1.504V1.931zm24.372-.3V.502h15.42V1.63h-.677c-.677 0-1.129.15-1.354.376-.226.226-.301.752-.301 1.504V16.6c0 .902.075 1.429.3 1.58.226.225.753.3 1.58.3h.452l1.654 4.664-1.203.451c-.376-1.128-.978-2.03-1.655-2.633-.677-.601-1.354-.977-1.88-1.128-.602-.15-1.58-.226-3.01-.226h-7.897c-1.504 0-2.558.076-3.235.301-.676.226-1.278.602-1.88 1.204-.602.602-1.053 1.429-1.43 2.407l-1.203-.451 1.655-4.664c.752 0 1.354-.075 1.655-.226.3-.15.677-.376.903-.677.3-.3.45-.752.601-1.203l3.837-12.411c.15-.452.225-.753.225-1.054 0-.827-.602-1.278-1.805-1.278h-.752v.075zm10.455.3H87.18L82.666 16.6c-.15.376-.15.601-.15.752 0 .3.15.526.376.602.225.075.677.15 1.354.15h6.92c.677 0 1.128-.075 1.354-.15.226-.076.376-.226.376-.377 0-.15.075-.677.075-1.504V1.931zM110.046.427h2.256l5.943 16.021c.3.828.601 1.354.902 1.58.301.226.677.376 1.204.376h.301v1.128h-6.845v-1.128h.677c.451 0 .752-.075.827-.15.301-.15.376-.377.376-.678 0-.225-.15-.676-.376-1.429l-1.279-3.685h-6.92l-1.504 4.137c-.151.451-.226.752-.226.902 0 .15.075.376.15.452.076.15.226.225.377.3.15.076.451.076.827.076h.602v1.128h-5.717v-1.128c.527 0 .903-.076 1.128-.15.226-.076.452-.302.602-.527.151-.226.376-.752.677-1.505l6.018-15.72zm-2.407 10.756h5.942l-2.934-8.199-3.008 8.199zm42.498-9.253h-9.628V16.6c0 .827.076 1.354.301 1.58.226.225.752.3 1.58.3h.526v1.128h-7.371V18.48h.451c.828 0 1.354-.075 1.58-.226.226-.15.376-.677.376-1.429V3.586c0-.828-.075-1.279-.301-1.58-.226-.226-.677-.376-1.279-.376h-.752V.502h19.557V1.63h-.677c-.677 0-1.128.15-1.354.376-.225.226-.301.752-.301 1.504V16.6c0 .902.076 1.429.301 1.58.226.225.752.3 1.655.3h.376v1.128h-7.296V18.48h.526c.677 0 1.129-.075 1.354-.15a.773.773 0 00.452-.376c.075-.15.075-.677.075-1.505V1.931h-.151zm9.779-1.503h7.597c2.332 0 3.912.15 4.739.45a6.61 6.61 0 012.708 1.806c.677.828 1.053 1.88 1.053 3.235 0 1.128-.301 2.03-.827 2.858-.677.978-1.43 1.655-2.407 2.03-.978.377-2.407.603-4.363.603h-3.536v4.889c0 .752.076 1.203.151 1.354.075.3.226.451.451.526.226.075.602.15 1.204.15h.677v1.129h-7.372v-1.128h.452c.601 0 1.053-.076 1.278-.15.226-.076.376-.302.527-.527.15-.226.15-.677.15-1.279V3.285c0-.602-.075-1.053-.15-1.204a.679.679 0 00-.451-.451c-.226-.075-.677-.15-1.354-.15h-.452V.427h-.075zm5.04 1.504v8.048h2.933c1.505 0 2.558-.15 3.159-.376a3.714 3.714 0 001.505-1.354 4.67 4.67 0 00.602-2.331c0-.978-.226-1.73-.677-2.407-.452-.677-1.053-1.054-1.881-1.28-.526-.15-1.655-.225-3.234-.225h-2.407v-.075zM186.769.427h2.257l5.942 16.021c.301.828.602 1.354.903 1.58.301.226.677.376 1.203.376h.301v1.128h-6.845v-1.128h.677c.452 0 .752-.075.828-.15.301-.15.376-.377.376-.678 0-.225-.151-.676-.376-1.429l-1.279-3.685h-6.92l-1.505 4.137c-.15.451-.225.752-.225.902 0 .15.075.376.15.452.075.15.226.225.376.3.151.076.452.076.828.076h.601v1.128h-5.716v-1.128c.526 0 .902-.076 1.128-.15.226-.076.451-.302.602-.527.15-.226.376-.752.677-1.505l6.017-15.72zm-2.407 10.756h5.943l-2.934-8.199-3.009 8.199zM200.836.427h9.101c2.257 0 3.761.075 4.589.3 1.203.301 2.181.828 2.858 1.58.677.752 1.053 1.655 1.053 2.783 0 .752-.15 1.505-.526 2.106-.376.602-.903 1.129-1.655 1.58-.451.3-1.053.526-1.881.752.978.15 1.73.376 2.257.677.752.376 1.429.903 1.88 1.655.452.677.677 1.504.677 2.407 0 .902-.225 1.655-.677 2.407a4.83 4.83 0 01-1.88 1.805c-.827.451-1.805.752-2.858.903-1.053.15-2.182.226-3.385.226h-9.553v-1.129h.677c.602 0 1.053-.075 1.279-.3.301-.302.526-.678.526-1.355V3.511c0-.602-.075-1.054-.15-1.28-.075-.225-.226-.375-.452-.526-.225-.15-.601-.15-1.203-.15h-.677V.427zm4.964 1.58v6.995h3.536c1.655 0 2.783-.076 3.385-.226.977-.226 1.654-.677 2.181-1.279.526-.602.752-1.354.752-2.256 0-.753-.226-1.43-.677-1.956a3.142 3.142 0 00-1.805-1.053c-.527-.15-1.504-.15-3.084-.15H205.8v-.076zm0 8.273v6.32c0 .601 0 .977.076 1.128.075.15.225.3.451.376.15.075.602.075 1.354.075h1.88c1.881 0 3.16-.075 3.987-.3.827-.226 1.429-.678 2.031-1.28a3.73 3.73 0 00.827-2.406c0-.752-.225-1.505-.677-2.107-.451-.601-1.053-1.053-1.88-1.353-.828-.301-2.257-.377-4.288-.377H205.8v-.075zm21.362-8.65V.502h15.42V1.63h-.677c-.677 0-1.128.15-1.354.376-.225.226-.301.752-.301 1.504V16.6c0 .902.076 1.429.301 1.58.226.225.752.3 1.58.3h.451l1.655 4.664-1.204.451c-.376-1.128-.977-2.03-1.654-2.633-.677-.601-1.354-.977-1.881-1.128-.602-.15-1.579-.226-3.009-.226h-7.898c-1.504 0-2.557.076-3.234.301-.677.226-1.279.602-1.881 1.204-.601.602-1.053 1.429-1.429 2.407l-1.203-.451 1.655-4.664c.752 0 1.354-.075 1.654-.226.301-.15.677-.376.903-.677.301-.3.451-.752.602-1.203l3.836-12.411c.15-.452.226-.753.226-1.054 0-.827-.602-1.278-1.806-1.278h-.752v.075zm10.531.3h-5.792l-4.513 14.67c-.151.376-.151.601-.151.752 0 .3.151.526.376.602.226.075.677.15 1.354.15h6.921c.677 0 1.128-.075 1.354-.15.225-.076.376-.226.376-.377 0-.15.075-.677.075-1.504V1.931zM254.767.427h2.257l5.942 16.021c.301.828.602 1.354.903 1.58.301.226.677.376 1.203.376h.301v1.128h-6.845v-1.128h.677c.452 0 .753-.075.828-.15.301-.15.376-.377.376-.678 0-.225-.151-.676-.376-1.429l-1.279-3.685h-6.92l-1.505 4.137c-.15.451-.225.752-.225.902 0 .15.075.376.15.452.075.15.226.225.376.3.151.076.452.076.828.076h.601v1.128h-5.716v-1.128c.526 0 .902-.076 1.128-.15.226-.076.451-.302.602-.527.15-.226.376-.752.677-1.505l6.017-15.72zm-2.407 10.756h5.943l-2.934-8.199-3.009 8.199z" fill="currentColor"/></symbol><symbol id="logo-mini" viewBox="0 0 82 55"><path fill-rule="evenodd" clip-rule="evenodd" d="M47.355 50.776l-.267 1.199c3.732-1.422 2.088-4.975-1.732-4.353l-.045-.445v-.622c-.044-.266-.044-.577-.31-.977-.534-.844-.978-.977-1.822-1.066l.355 1.288c.267 1.91-1.688 3.065-2.754 5.686-1.066-2.62-2.976-3.776-2.754-5.686l.355-1.288c-.8.133-1.244.222-1.821 1.066-.222.4-.267.71-.311.977-.044.311 0 .178 0 .622l-.044.445c-3.82-.622-5.509 2.931-1.733 4.353l-.267-1.2c-.266-1.51.845-2.132 2.044-2.176 2.665-.089 3.376 2.576 4.087 4.576.178.222.31.31.444.31.133 0 .267-.088.444-.31.711-2 1.422-4.665 4.087-4.576 1.2.044 2.31.666 2.044 2.177zm4.62-46.956c-2.754 1.155-11.15-.4-10.395.978 2.976-.578 9.906 1.688 12.216.488 1.333-.71 1.289-1.466 2.088-2.398a4.327 4.327 0 011.555-1.111c-2.088-1.155-2.177.489-2.798.178-.356-.178.266-1.333-1.289-1.955.8 2.132.089 3.198-1.377 3.82zm-26.254-.888c.8.933.756 1.688 2.088 2.399 2.31 1.2 9.24-1.066 12.217-.489.755-1.377-7.641.178-10.396-.977-1.465-.622-2.176-1.733-1.421-3.776-1.51.622-.933 1.777-1.288 1.954-.578.267-.711-1.332-2.799-.177.044-.09.889.266 1.6 1.066z"/><path fill-rule="evenodd" clip-rule="evenodd" d="M46.422 3.02c.755-.177.933-.577.977-.977.045-.4-.31-.8-.666-.932-.222-.09-.489-.045-.577.133-.356.666.488.533.577.8.089.355-.4.533-1.11.488-.711-.044-1.422-.355-2.088-.222-1.777.355-2.755 1.51-2.755 1.51.444-.133 1.733-.8 3.465-.71 1.022 0 1.733.044 2.177-.09z"/><path fill-rule="evenodd" clip-rule="evenodd" d="M35.227 3.02c.489.134 1.155.09 2.177.045 1.732-.089 3.02.622 3.465.711 0 0-.977-1.155-2.754-1.51-.667-.134-1.377.177-2.088.222-.667.044-1.2-.134-1.11-.489.088-.267.932-.133.577-.8-.09-.177-.356-.222-.578-.133-.355.133-.71.533-.666.933 0 .444.222.844.977 1.022zm11.55.756c1.688-.267 2.488.133 3.732-.4 1.066-.444 1.421-1.244 2.31-1.999-.844.133-1.51 1.022-2.443 1.377-.8.311-2.577.755-3.554.933l-.045.089zm-15.637-.4c1.244.489 2.044.134 3.732.4v-.133c-1.022-.178-2.754-.578-3.554-.933-.933-.356-1.599-1.2-2.443-1.377.844.8 1.2 1.643 2.266 2.043zm27.054 36.472c1.022-1.6-.355-2.488-.133-2.888.4-.666 1.644 1.022 2.843-1.466 0 0-1.066.178-2.31-.266-1.466-.534-1.91-1.378-3.687-1.333-3.065.089-8.218 6.708-11.506 7.907.222 1.955 7.286-4.797 10.75-5.197 1.866-.222 3.288.577 4.043 3.243zm-20.123 1.954c-3.287-1.2-8.44-7.818-11.505-7.907-1.777-.045-2.266.8-3.688 1.333-1.244.444-2.31.266-2.31.266 1.2 2.488 2.444.8 2.843 1.466.223.4-1.155 1.288-.133 2.888.71-2.71 2.177-3.465 4.043-3.243 3.42.444 10.483 7.152 10.75 5.197z"/><path fill-rule="evenodd" clip-rule="evenodd" d="M47.755 43.712c.178.178.489.045.666-.133.312-.31.4-.977.134-1.421-.267-.445-.711-.8-1.555-.667-.533.09-1.244.444-2.266.978-1.732.932-3.465.755-3.998.844 0 0 1.688.844 3.732.4.755-.178 1.333-.889 2.043-1.289.667-.4 1.289-.444 1.422.045.044.355-.933.621-.178 1.243zm-13.282-2.221c-.889-.133-1.333.222-1.555.667-.267.444-.133 1.066.133 1.421.178.178.444.311.666.133.711-.622-.222-.888-.133-1.199.089-.444.755-.4 1.422-.044.71.4 1.243 1.11 2.043 1.288 2.044.444 3.732-.4 3.732-.4-.533-.089-2.221.089-3.998-.844-1.067-.578-1.733-.933-2.31-1.022zm18.835-2.71c1.155-.177 2.399.356 3.332 0-1.377-.31-2.31-.932-3.643-.755-1.555.222-2.088 1.11-3.91 1.822l.09.088c1.155-.444 3.154-1.021 4.131-1.155zm-28.52 0c.933.356 2.177-.177 3.332 0 1.022.178 3.02.755 4.087 1.155l.089-.089c-1.822-.71-2.31-1.599-3.91-1.82-1.288-.223-2.22.443-3.598.754zm11.506.267a29.784 29.784 0 004.487 2.532l.044.044.044-.044c13.105-5.82 17.014-17.77 17.237-31.318v-.09l-.09-.044c-10.394-5.153-23.899-4.664-34.338 0l-.09.045v.089c0 11.017 3.288 22.211 12.706 28.786zm20.79-28.209c-.311 12.66-3.954 23.989-16.215 29.63-11.683-5.42-16.08-17.413-16.17-29.585 9.907-4.265 22.523-4.71 32.385-.045z"/><path fill-rule="evenodd" clip-rule="evenodd" d="M40.869 39.847C52.64 34.34 56.195 23.411 56.55 11.195 47 6.797 34.872 7.24 25.276 11.239c.134 11.728 4.354 23.278 15.593 28.608zm15.06-28.297c-.4 11.772-3.821 22.256-15.06 27.676-10.706-5.242-14.793-16.304-15.06-27.632 9.285-3.731 20.88-4.13 30.12-.044zM4.353 41.003c.978-.356.756-.223 1.6-.311-.09.266-1.2 2.31.089 1.82 1.865-.71 2.532-1.732 5.153-1.554 2.354.133 3.998.977 5.73 2.177 1.822 1.288 4.043 2.177 6.397 2.576 2.754.49 4.976.09 8.13-1.865-.4-.4-.4-1.11-.311-1.466-3.021 1.732-4.798 2.132-7.419 1.377-2.132-.622-3.998-2.044-5.153-3.199a16.57 16.57 0 00-1.6-1.421c-2.043-1.688-4.62-3.554-7.285-3.91-1.332-.177-2.176-.355-3.598-.266-.4.044-.888 0-1.066.489.355.31.533.31 1.022.444l-1.333.489h-.045c-.577.222-2.176 1.155-2.576 1.599-.4.444-.133.178-.133.31.266-.266.755-.444 1.11-.532l.178-.045c3.376-1.022 7.463-.444 10.75 1.2 1.155.577 2.799 1.643 4.31 2.976.177.178.088.355-.09.222-1.732-1.644-5.33-3.554-7.774-4.131-2.665-.622-5.863-.622-7.996.444l-.488.222c-.889.533-1.2.71-1.6 1.777C.178 40.914 0 41.847 0 42.38c0 .488.133 1.243.267 1.732.222-.133 1.288-2.132 4.086-3.11zm58.728-.445c-1.155 1.155-3.02 2.577-5.153 3.199-2.665.8-4.442.355-7.419-1.377.089.355.09 1.066-.31 1.466 3.153 1.954 5.374 2.354 8.129 1.865a16.32 16.32 0 006.397-2.576c1.732-1.2 3.376-2.044 5.73-2.177 2.621-.178 3.332.844 5.153 1.555 1.244.489.178-1.555.09-1.821.888.133.621 0 1.598.31 2.799.933 3.865 2.977 4.132 3.11.133-.489.266-1.244.266-1.732 0-.533-.133-1.466-.355-1.955-.4-1.066-.666-1.244-1.6-1.777l-.488-.222c-2.132-1.066-5.375-1.066-7.996-.444-2.444.577-6.042 2.443-7.774 4.131-.178.133-.267-.089-.09-.222 1.511-1.333 3.155-2.399 4.31-2.976 3.287-1.644 7.374-2.221 10.75-1.2l.178.045c.355.089.8.31 1.11.533 0-.133.267.089-.133-.311-.4-.444-2.043-1.377-2.576-1.6h-.045l-1.332-.488c.488-.133.622-.133 1.021-.444-.222-.489-.71-.445-1.066-.489-1.421-.089-2.265.089-3.598.267-2.71.355-5.242 2.22-7.285 3.909-.622.4-1.111.888-1.644 1.421zM10.795 24.3c.355-1.244.932-2.266 1.732-3.332.489-.622 2.132-2.355 2.799-2.177-.311.355-1.022.755-1.377 1.11-.933.889-1.6 1.644-2.177 2.844l-.444 1.021c-.356 1.11-.489 1.866-.489 3.021 0 1.422.311 2.71.977 4.043.356.755 1.244 1.776 1.777 2.398-.089-.577-.177-1.954.134-3.154-1.555-1.199-1.289-3.731-.756-5.42.223-.754.667-1.554 1.244-2.31 1.066-1.42 1.644-1.732 3.021-2.398.355-.178.533 0 .755-.178.222-.222.267-.355.666-.533 1.244-.577 1.777.222 2.044.311-.222-.444-.267-.488-.622-.71-.755-.4-1.51-.445-2.354-.4.222-.267 1.11-.178 1.377-.178.844.089 2.088.622 1.954 1.688-.044.4-.222 1.022-.622 1.2-.4.177-.355.133-.31.044.177-.267.266-.134.444-.489.177-.4.044-.489-.09-.844-.31-.666-1.598-.888-2.265.178-.977 1.688 1.244 3.51 3.154 1.821.4-.355.711-.933.8-1.377.133-.444.178-1.11-.045-1.6-.533-1.154-.666-1.51-1.998-2.176-.356-.178-.49-.222-.933-.31-.445-.09-.534-.09-.978-.134-2.265-.089-4.53 1.244-5.908 3.11a8.27 8.27 0 00-.933 1.732c-.355.8-.888 3.154-.666 3.998-.045-.044.044-.533.089-.8zm58.683-4.798c-1.377-1.866-3.643-3.199-5.908-3.11-.445 0-.578.045-.978.133-.4.09-.533.134-.933.311-1.332.667-1.466 1.022-1.999 2.177-.222.489-.177 1.155-.044 1.6.133.444.4 1.021.8 1.376 1.91 1.688 4.13-.177 3.154-1.82-.622-1.067-1.955-.845-2.266-.179-.178.311-.267.4-.089.844.133.356.267.223.444.49.045.088.09.177-.31-.045-.4-.178-.578-.8-.622-1.2-.134-1.066 1.11-1.555 1.954-1.688.311-.044 1.155-.133 1.377.178-.844-.045-1.599 0-2.354.4-.356.222-.4.222-.622.71.266-.133.8-.888 2.043-.31.4.177.4.355.667.533.222.222.4.044.755.177 1.377.667 1.91.978 3.02 2.4a8.416 8.416 0 011.245 2.31c.533 1.687.8 4.22-.756 5.419.356 1.2.267 2.532.134 3.154.488-.622 1.421-1.644 1.776-2.4.622-1.332.978-2.62.978-4.042 0-1.199-.133-1.91-.489-3.02l-.444-1.022c-.578-1.2-1.244-1.955-2.177-2.843-.4-.356-1.066-.755-1.377-1.11.622-.178 2.31 1.554 2.799 2.176.8 1.022 1.377 2.088 1.732 3.332.09.222.133.755.267.933.222-.844-.311-3.199-.667-3.998-.444-.711-.71-1.289-1.11-1.866z"/><path fill-rule="evenodd" clip-rule="evenodd" d="M16.925 35.983c.71 1.866 3.332 3.776 3.598 3.642-.044-.31-1.821-1.332-1.599-4.442a8.321 8.321 0 01.4-1.821c.044-.134.089-.222.133-.4.044-.178.089-.267.178-.444.089-.267.133-.222.089-.444-1.155-.356-1.155.266-1.466.533.088-.134.044-.222.133-.356.31-.577.533-.133 1.066-.933.578-.888 1.288-4.087.578-4.842-.889 1.51-3.021.666-4.22 2.932a2.305 2.305 0 00-.134.222c-.089 0 .222-.933.311-1.066.355-.888-.577-1.155-.8-.666-1.11 3.065-1.82 8.751 3.066 10.572-.356-.533-.933-1.021-1.289-1.732-.8-1.466-1.244-4.442-.4-5.908-.088.488-.177.71-.222 1.244-.133 1.288.09 2.62.578 3.909zm47.799 0c.489-1.288.711-2.621.578-3.954-.045-.489-.134-.755-.222-1.244.844 1.466.4 4.442-.4 5.909-.356.71-.933 1.199-1.288 1.732 4.886-1.866 4.175-7.508 3.065-10.573-.222-.488-1.2-.266-.8.667.089.133.444 1.021.311 1.066 0 0-.044-.045-.133-.222-1.2-2.266-3.332-1.422-4.22-2.932-.711.8-.045 3.953.577 4.842.533.8.755.355 1.066.933.09.178.09.222.134.355-.311-.266-.311-.888-1.466-.533 0 .178 0 .178.088.444.045.178.09.267.178.444.045.178.089.311.133.4.178.489.356 1.289.4 1.822.222 3.11-1.555 4.131-1.599 4.442.267.178 2.887-1.733 3.598-3.598zM12.216 18.791c.311-.355.622-.755 1.022-1.022 1.6-1.288 2.221-1.2 2.888-1.599.488-.31.8-.577 1.377-.844 1.377-.622 1.643-1.022 2.354-1.955.045 1.333-2.31 2.088-3.02 2.621l1.42-.044c.623.044.756.222 1.422-.267.445-.31.845-.666 1.289-.977.533-.355.71-.666.844-1.066-.178-.178-.4.089-.356-.133.134-.178.622-.711.933-1.155.222-.311.622-.978.09-1.333-.445-.133-1.245.622-1.556.889.267-.845.445 0 .756-1.6.31-1.599-.889-3.154-2.177-3.02.31.444.4.355.71 1.021.534 1.11.356 2.133-.266 3.199-1.955 3.331-6.22 3.553-8.263 6.752-.4.622-1.244 2.132-.844 2.887.533-1.11.622-1.377 1.377-2.354zm48.11-5.331c.089.222-.178-.044-.355.133.133.445.31.756.844 1.111.444.311.844.666 1.288.977.666.49.8.311 1.422.267l1.421.044c-.71-.577-3.02-1.288-3.02-2.62.71.932.977 1.332 2.354 1.954.577.267.888.533 1.377.844.622.4 1.288.311 2.887 1.6.356.31.711.666 1.022 1.021.755.977.844 1.244 1.333 2.266.4-.756-.4-2.266-.844-2.888-2.088-3.198-6.353-3.42-8.263-6.752-.622-1.066-.8-2.088-.266-3.199.31-.666.4-.533.71-1.021-1.288-.134-2.487 1.421-2.176 3.02.31 1.6.488.756.755 1.6-.311-.267-1.11-1.067-1.555-.889-.533.355-.133 1.022.089 1.333.355.489.888 1.022.977 1.2zM21.99 24.21c-.666.134-1.2.8-1.288 1.378-.045.355.088.71.444.755 1.244.222.666-.977 1.11-1.2.534-.31 1.067.4 1.244 1.378.222 1.021 0 2.22.489 3.11 1.333 2.443 3.598 3.375 3.598 3.375-.355-.577-1.999-2.132-2.62-4.708-.356-1.466-.578-2.488-.978-3.11-.578-.977-1.333-1.066-2-.977zm35.671 5.42c.489-.888.267-2.088.489-3.11.178-.977.71-1.688 1.244-1.377.4.223-.133 1.378 1.11 1.2.356-.044.489-.4.445-.755-.09-.578-.622-1.244-1.289-1.377-.666-.134-1.421 0-2.043.977-.4.622-.622 1.644-.977 3.11-.578 2.532-2.222 4.13-2.621 4.708 0 .045 2.31-.932 3.642-3.376zm-13.594 23.9c8.219 4.709 13.06-6.175 25.9-6.308-13.772-5.553-15.727 6.797-25.9 6.308zm-31.496-6.308c12.839.133 17.68 10.972 25.899 6.308-10.173.489-12.127-11.861-25.899-6.308z"/></symbol><symbol id="logo-abbr"><path d="M43.713 14.837c0 .133-.09.311-.311.578-.222.266-.578.577-1.11.977-.445.355-.845.666-1.2.889-.311.222-.622.444-.889.621-.266.178-.488.356-.71.49a5.91 5.91 0 00-.711.532c.089.178.222.489.31.889.134.4.223.8.356 1.244l.267.932c.088.311.177.578.266.844.089.267.222.445.355.578.134.133.267.222.4.222.134 0 .267-.044.445-.089.177-.044.266-.133.4-.266l.088.133c-.044.044-.089.133-.222.222a3.225 3.225 0 01-.4.355c-.133.134-.31.223-.488.311a1.013 1.013 0 01-.489.134.67.67 0 01-.489-.178c-.133-.133-.222-.311-.355-.533a8.39 8.39 0 01-.267-.8 12.124 12.124 0 00-.31-.977c-.045-.133-.134-.355-.178-.622a5.427 5.427 0 00-.222-.8c-.09-.266-.178-.533-.267-.755-.089-.222-.178-.4-.266-.444-.178.444-.356.933-.534 1.377-.133.4-.31.8-.488 1.2-.178.4-.311.8-.444 1.11a3.069 3.069 0 00-.178.444.715.715 0 01-.178.311c-.044.09-.089.134-.133.222a.59.59 0 01-.178.134c-.133.088-.266.133-.4.222-.133.044-.266.089-.355.089-.089 0-.133 0-.133-.045 0-.044-.045-.044-.045-.089 0-.044.045-.133.09-.266.044-.133.177-.356.31-.622.222-.489.444-.933.578-1.288.177-.356.31-.756.444-1.067l.4-1.066c.133-.355.31-.755.488-1.2.134-.354.267-.71.445-1.11.133-.4.266-.71.4-1.066.133-.31.221-.622.31-.844.09-.222.134-.4.178-.444-.089 0-.222 0-.31-.045-.09 0-.179 0-.267-.044h-.267c-.31 0-.71 0-1.155.044-.444.045-.933.09-1.466.223-.533.133-1.11.355-1.732.621-.622.267-1.289.667-1.955 1.155-.267.178-.533.4-.71.622-.223.223-.4.4-.578.622-.134.223-.267.4-.356.578a1.183 1.183 0 00-.133.533c0 .089 0 .133.044.222.045.089.134.089.267.089s.222 0 .267-.045c.088-.044.177-.088.31-.133v.178c-.177.222-.444.355-.666.489-.266.088-.488.133-.622.133-.355 0-.577-.178-.577-.533 0-.267.089-.533.31-.844.223-.311.445-.622.756-.933.31-.311.622-.578.977-.844.356-.267.666-.489.933-.667.71-.444 1.422-.8 2.088-1.066.666-.266 1.288-.488 1.91-.622.622-.133 1.2-.222 1.733-.266.533-.045 1.066-.045 1.51-.045.133 0 .311 0 .489.045.177.044.31.044.4.044l-1.777 4.354c.31-.222.621-.444.844-.622.222-.178.488-.356.71-.533.222-.178.489-.356.711-.533.222-.178.533-.4.844-.622.133-.09.267-.222.444-.356l.4-.4c.134-.133.222-.266.311-.355.089-.133.134-.222.134-.355 0-.09-.045-.178-.134-.178-.089-.044-.133-.044-.177-.044v-.09c.266-.133.533-.266.8-.31.266-.045.443-.089.577-.089a.4.4 0 01.222.044c.266-.088.31 0 .31.09z" fill="currentColor"/><path d="M48.11 26.298c0 1.378-1.066 2.8-3.287 2.8-.311 0-1.6-.09-1.733-.09-.044 0-.888.045-1.288.045-.133 0-.222-.045-.222-.09 0-.044.044-.088.089-.088.133 0 .266 0 .4-.044.222-.045.266-.178.355-.578.044-.355.089-1.377.089-2.976V23.01c0-2.177 0-2.71-.044-2.932-.045-.31-.134-.489-.534-.577-.088-.045-.31-.045-.444-.045-.044 0-.089-.044-.089-.089 0-.088.045-.088.222-.088.578 0 1.378.044 1.466.044.311 0 .8-.045 1.422-.045 2.132 0 2.577 1.289 2.577 1.955 0 1.066-.622 1.688-1.2 2.31.933.311 2.221 1.244 2.221 2.754zm-4.53-2.931c0 .088.044.133.088.133.089 0 .31.044.8.044.71 0 .888-.044 1.154-.355.267-.311.445-.755.445-1.288 0-1.067-.489-2.222-1.733-2.222-.133 0-.4 0-.622.045-.133.044-.133.044-.133.133v3.51zm0 3.775c0 .978.044 1.2.443 1.378.356.177.889.177 1.155.177.711 0 1.822-.355 1.822-1.821 0-.755-.267-1.91-1.244-2.621-.489-.355-.933-.4-1.377-.4-.755 0-.755 0-.755.089v3.198h-.045z" fill="currentColor"/></symbol></svg>