<svg xmlns="http://www.w3.org/2000/svg"><symbol id="icon-phone"><svg width="14" height="14" viewBox="0 0 14 14"><path fill-rule="evenodd" clip-rule="evenodd" d="M.778 0A.777.777 0 000 .778C0 8.08 5.92 14 13.222 14c.43 0 .778-.348.778-.778V10.5a.777.777 0 00-.778-.777 8.89 8.89 0 01-2.778-.443.775.775 0 00-.79.19l-1.711 1.714a11.73 11.73 0 01-5.125-5.122l1.711-1.717a.778.778 0 00.19-.789A8.92 8.92 0 014.278.778.777.777 0 003.5 0H.778z" fill="currentColor"/></svg></symbol><symbol id="icon-marker"><svg width="10" height="15" viewBox="0 0 10 15"><path d="M5 0C2.243 0 0 2.243 0 5c0 .828.207 1.648.6 2.376l4.127 7.463a.312.312 0 00.546 0l4.128-7.465A5.009 5.009 0 0010 5c0-2.757-2.243-5-5-5zm0 7.5A2.503 2.503 0 012.5 5c0-1.378 1.122-2.5 2.5-2.5S7.5 3.622 7.5 5 6.378 7.5 5 7.5z" fill="currentColor"/></svg></symbol><symbol id="icon-mail"><svg width="18" height="12" viewBox="0 0 18 12"><path d="M16.531 0H.72C.299 0 0 .302 0 .724v10.552c0 .422.3.724.719.724H16.53c.42 0 .719-.302.719-.724V.724c0-.422-.3-.724-.719-.724zm-5.27 6.513c1.317.904 4.791 3.618 4.791 3.618.12.12.12.361.06.482-.06.12-.3.241-.42.12 0 0-3.653-2.653-5.09-3.617-.06-.06-.12 0-.12 0L8.924 8.382c-.06.06-.18.12-.299.12-.12 0-.24-.06-.3-.12L6.769 7.116s-.06-.06-.12 0c-1.377.964-5.03 3.678-5.03 3.678-.12.12-.42 0-.48-.12-.06-.121-.06-.362.06-.483 0 0 3.474-2.653 4.792-3.558.06-.06 0-.12 0-.12L1.078 1.99c-.18-.18-.24-.422-.12-.603a.33.33 0 01.3-.181c.12 0 .18 0 .3.06l6.947 6.09c.06.061.12.061.18.061s.12 0 .18-.06l6.888-6.09c.06-.061.12-.061.24-.061a.33.33 0 01.299.18c.12.182.06.423-.12.604L11.26 6.452c0-.06-.06 0 0 .06z" fill="currentColor"/></svg></symbol><symbol id="icon-dawn"><svg width="9" height="6" viewBox="0 0 9 6"><path fill-rule="evenodd" clip-rule="evenodd" d="M7.162.6L4.054 3.708.946.6 0 1.546 4.054 5.6l4.054-4.054L7.162.6z" fill="currentColor"/></svg></symbol></svg>