<svg width="35" height="45" viewBox="0 0 35 45" fill="none" xmlns="http://www.w3.org/2000/svg">
  <path d="M9.61252 33.552L1.70552 37.865C1.24152 38.118 0.824523 38.429 0.436523 38.768C5.04652 42.655 10.9975 45 17.4995 45C23.9535 45 29.8665 42.69 34.4635 38.856C34.0395 38.498 33.5795 38.176 33.0695 37.922L24.6025 33.689C23.5085 33.142 22.8175 32.024 22.8175 30.801V27.479C23.0555 27.208 23.3275 26.86 23.6185 26.449C24.7725 24.819 25.6455 23.026 26.2505 21.145C27.3365 20.81 28.1365 19.807 28.1365 18.615V15.069C28.1365 14.289 27.7895 13.592 27.2505 13.104V7.97798C27.2505 7.97798 28.3035 0.000976562 17.5005 0.000976562C6.69752 0.000976562 7.75052 7.97798 7.75052 7.97798V13.104C7.21052 13.592 6.86452 14.289 6.86452 15.069V18.615C6.86452 19.549 7.35552 20.371 8.09052 20.846C8.97652 24.703 11.2965 27.479 11.2965 27.479V30.719C11.2955 31.899 10.6495 32.986 9.61252 33.552Z" fill="#E5E5E5"/>
</svg>
