<svg width="35" height="45" viewBox="0 0 35 45" fill="none" xmlns="http://www.w3.org/2000/svg"><path d="M9.613 33.552l-7.907 4.313a7.106 7.106 0 00-1.27.903A26.377 26.377 0 0017.5 45c6.453 0 12.366-2.31 16.964-6.144a7.015 7.015 0 00-1.395-.934l-8.467-4.233a3.229 3.229 0 01-1.785-2.888v-3.322c.238-.271.51-.619.802-1.03a19.482 19.482 0 002.631-5.304c1.087-.335 1.887-1.338 1.887-2.53v-3.546c0-.78-.348-1.477-.887-1.965V7.978S28.303.001 17.5.001c-10.802 0-9.75 7.977-9.75 7.977v5.126a2.644 2.644 0 00-.885 1.965v3.546c0 .934.49 1.756 1.226 2.231.886 3.857 3.206 6.633 3.206 6.633v3.24a3.232 3.232 0 01-1.684 2.833z" fill="#E5E5E5"/></svg>