<svg xmlns="http://www.w3.org/2000/svg">
  <symbol id="icon-phone">
    <svg viewBox="0 0 14 14">
      <path fill-rule="evenodd" clip-rule="evenodd" d="M0.777778 0C0.347667 0 0 0.347667 0 0.777778C0 8.07956 5.92044 14 13.2222 14C13.6523 14 14 13.6523 14 13.2222V10.5C14 10.0707 13.6523 9.723 13.2222 9.723C12.2516 9.723 11.3182 9.56667 10.444 9.28045C10.3662 9.25556 10.2846 9.24311 10.2037 9.24311C10.0053 9.24311 9.80622 9.31933 9.65456 9.471L7.94267 11.1844C5.74 10.0644 3.93944 8.26389 2.81789 6.062L4.529 4.34544C4.74289 4.13233 4.80589 3.82511 4.71956 3.556C4.43333 2.681 4.277 1.74767 4.277 0.777778C4.277 0.347667 3.92933 0 3.5 0H0.777778Z" fill="currentColor"/>
    </svg>
  </symbol>
  <symbol id="icon-marker">
    <svg viewBox="0 0 10 15">
      <path d="M5.00001 0C2.24306 0 0 2.24306 0 5.00001C0 5.82765 0.206924 6.64825 0.600293 7.3761L4.72658 14.8389C4.78151 14.9384 4.88619 15 5.00001 15C5.11383 15 5.21851 14.9384 5.27344 14.8389L9.40125 7.37364C9.7931 6.64825 10 5.82762 10 4.99998C10 2.24306 7.75696 0 5.00001 0ZM5.00001 7.5C3.62153 7.5 2.50002 6.37849 2.50002 5.00001C2.50002 3.62153 3.62153 2.50002 5.00001 2.50002C6.37849 2.50002 7.5 3.62153 7.5 5.00001C7.5 6.37849 6.37849 7.5 5.00001 7.5Z" fill="currentColor"/>
    </svg>
  </symbol>
  <symbol id="icon-mail">
    <svg viewBox="0 0 18 12">
      <path d="M16.5313 0H0.71875C0.299479 0 0 0.301508 0 0.723618V11.2764C0 11.6985 0.299479 12 0.71875 12H16.5313C16.9505 12 17.25 11.6985 17.25 11.2764V0.723618C17.25 0.301508 16.9505 0 16.5313 0ZM11.2604 6.51256C12.5781 7.41709 16.0521 10.1307 16.0521 10.1307C16.1719 10.2513 16.1719 10.4925 16.112 10.6131C16.0521 10.7337 15.8125 10.8543 15.6927 10.7337C15.6927 10.7337 12.0391 8.0804 10.6016 7.11558C10.5417 7.05528 10.4818 7.11558 10.4818 7.11558L8.92448 8.38191C8.86458 8.44221 8.74479 8.50251 8.625 8.50251C8.50521 8.50251 8.38542 8.44221 8.32552 8.38191L6.76823 7.11558C6.76823 7.11558 6.70833 7.05528 6.64844 7.11558C5.27083 8.0804 1.61719 10.794 1.61719 10.794C1.4974 10.9146 1.19792 10.794 1.13802 10.6734C1.07812 10.5528 1.07813 10.3116 1.19792 10.191C1.19792 10.191 4.67188 7.53769 5.98958 6.63317C6.04948 6.57286 5.98958 6.51256 5.98958 6.51256L1.07812 1.98995C0.898438 1.80905 0.838542 1.56784 0.958333 1.38693C1.01823 1.26633 1.13802 1.20603 1.25781 1.20603C1.3776 1.20603 1.4375 1.20603 1.55729 1.26633L8.50521 7.35678C8.5651 7.41709 8.625 7.41709 8.6849 7.41709C8.74479 7.41709 8.80469 7.41709 8.86458 7.35678L15.7526 1.26633C15.8125 1.20603 15.8724 1.20603 15.9922 1.20603C16.112 1.20603 16.2318 1.26633 16.2917 1.38693C16.4115 1.56784 16.3516 1.80905 16.1719 1.98995L11.2604 6.45226C11.2604 6.39196 11.2005 6.45226 11.2604 6.51256Z" fill="currentColor"/>
    </svg>
  </symbol>
  <symbol id="icon-clock">
    <svg viewBox="0 0 20 20">
      <path d="M10 0C4.486 0 0 4.486 0 10C0 15.514 4.486 20 10 20C15.514 20 20 15.514 20 10C20 4.486 15.514 0 10 0ZM10 17.8722C5.65933 17.8722 2.12762 14.3409 2.12762 10C2.12762 5.65912 5.65933 2.12783 10 2.12783C14.3407 2.12783 17.8724 5.65912 17.8724 10C17.8724 14.3409 14.3407 17.8722 10 17.8722Z" fill="currentColor"/>
      <path d="M15.2111 9.6912H10.7171V4.28774C10.7171 3.83303 10.3484 3.46436 9.8937 3.46436C9.43898 3.46436 9.07031 3.83303 9.07031 4.28774V10.5146C9.07031 10.9693 9.43898 11.338 9.8937 11.338H15.2111C15.6658 11.338 16.0345 10.9693 16.0345 10.5146C16.0345 10.0599 15.6658 9.6912 15.2111 9.6912Z" fill="currentColor"/>
    </svg>
  </symbol>
  <symbol id="icon-dawn" viewBox="0 0 9 6">
    <path fill-rule="evenodd" clip-rule="evenodd" d="M7.16216 0.600098L4.05405 3.70821L0.945946 0.600098L0 1.54604L4.05405 5.6001L8.10811 1.54604L7.16216 0.600098Z" fill="currentColor"/>
  </symbol>

</svg>