<svg xmlns="http://www.w3.org/2000/svg">
  <symbol id="logo-full" viewBox="0 0 195 79">
    <path fill-rule="evenodd" clip-rule="evenodd" d="M106.055 71.2551L105.681 72.9369C110.913 70.9437 108.608 65.9607 103.252 66.8327L103.189 66.2099C103.189 65.587 103.189 65.7116 103.189 65.3379C103.127 64.9641 103.127 64.5281 102.753 63.9675C102.006 62.7841 101.383 62.5972 100.2 62.4727L100.698 64.279C101.072 66.9573 98.3311 68.5768 96.8362 72.2517C95.3413 68.5768 92.663 66.9573 92.9744 64.279L93.4727 62.4727C92.3515 62.6595 91.7286 62.7841 90.9189 63.9675C90.6075 64.5281 90.5452 64.9641 90.4829 65.3379C90.4206 65.7739 90.4829 65.587 90.4829 66.2099L90.4206 66.8327C85.0639 65.9607 82.697 70.9437 87.9914 72.9369L87.6177 71.2551C87.244 69.1374 88.8012 68.2653 90.4829 68.2031C94.2201 68.0785 95.2167 71.8157 96.2133 74.6186C96.4625 74.93 96.6493 75.0546 96.8362 75.0546C97.023 75.0546 97.2099 74.93 97.459 74.6186C98.4556 71.8157 99.4522 68.0785 103.189 68.2031C104.871 68.2653 106.428 69.1374 106.055 71.2551Z"/>
    <path fill-rule="evenodd" clip-rule="evenodd" d="M112.533 5.41772C108.671 7.03718 96.8988 4.85713 97.9577 6.78803C102.131 5.9783 111.848 9.15494 115.087 7.47319C116.955 6.4766 116.893 5.41772 118.014 4.10969C119.011 2.98852 120.194 2.55251 120.194 2.55251C117.267 0.933053 117.142 3.23767 116.27 2.80166C115.772 2.55251 116.644 0.933053 114.464 0.0610352C115.585 3.05081 114.588 4.5457 112.533 5.41772Z"/>
    <path fill-rule="evenodd" clip-rule="evenodd" d="M75.7209 4.17216C76.842 5.48019 76.7797 6.53906 78.6483 7.53566C81.8873 9.2174 91.604 6.04077 95.7773 6.8505C96.8361 4.9196 85.0639 7.09965 81.2021 5.48019C79.1466 4.60817 78.15 3.05099 79.2089 0.185791C77.0912 1.05781 77.9009 2.67727 77.4026 2.92642C76.5929 3.30014 76.406 1.05781 73.4785 2.67727C73.5408 2.5527 74.7243 3.05099 75.7209 4.17216Z"/>
    <path fill-rule="evenodd" clip-rule="evenodd" d="M104.746 4.29654C105.805 4.04739 106.054 3.4868 106.117 2.92622C106.179 2.36564 105.681 1.80506 105.182 1.6182C104.871 1.49362 104.497 1.55591 104.373 1.80506C103.874 2.73936 105.058 2.5525 105.182 2.92622C105.307 3.42452 104.622 3.67367 103.625 3.61138C102.629 3.54909 101.632 3.11308 100.698 3.29994C98.2063 3.79824 96.8359 5.4177 96.8359 5.4177C97.4588 5.23084 99.2651 4.29654 101.694 4.42111C103.127 4.42111 104.124 4.4834 104.746 4.29654Z"/>
    <path fill-rule="evenodd" clip-rule="evenodd" d="M89.0504 4.29657C89.7356 4.48343 90.6699 4.42114 92.1025 4.35885C94.5317 4.23428 96.338 5.23087 96.9609 5.35545C96.9609 5.35545 95.5905 3.73598 93.0991 3.23769C92.1648 3.05083 91.1682 3.48684 90.1716 3.54912C89.2373 3.61141 88.4898 3.36226 88.6144 2.86397C88.739 2.49024 89.9224 2.67711 89.4241 1.7428C89.2996 1.49365 88.9258 1.43137 88.6144 1.55594C88.1161 1.7428 87.6178 2.30338 87.6801 2.86397C87.6801 3.48684 87.9915 4.04742 89.0504 4.29657Z"/>
    <path fill-rule="evenodd" clip-rule="evenodd" d="M105.245 5.35544C107.612 4.98172 108.733 5.5423 110.477 4.79486C111.972 4.17199 112.47 3.05082 113.716 1.99194C112.533 2.1788 111.598 3.42454 110.29 3.92284C109.169 4.35885 106.678 4.98172 105.307 5.23087L105.245 5.35544Z"/>
    <path fill-rule="evenodd" clip-rule="evenodd" d="M83.3202 4.79489C85.0642 5.48005 86.1854 4.98175 88.5523 5.35547V5.16861C87.1197 4.91946 84.6905 4.35888 83.5693 3.86058C82.2613 3.36229 81.327 2.17884 80.1436 1.92969C81.327 3.05085 81.8253 4.23431 83.3202 4.79489Z"/>
    <path fill-rule="evenodd" clip-rule="evenodd" d="M121.252 55.9326C122.685 53.6902 120.754 52.4445 121.065 51.8839C121.626 50.9496 123.37 53.3165 125.052 49.8284C125.052 49.8284 123.557 50.0776 121.813 49.4547C119.757 48.7073 119.135 47.5238 116.643 47.5861C112.345 47.7107 105.12 56.9914 100.511 58.6732C100.822 61.4138 110.726 51.9462 115.584 51.3856C118.2 51.0742 120.193 52.1953 121.252 55.9326Z"/>
    <path fill-rule="evenodd" clip-rule="evenodd" d="M93.0362 58.6732C88.427 56.9914 81.2017 47.7107 76.9039 47.5861C74.4124 47.5238 73.7272 48.7073 71.734 49.4547C69.99 50.0776 68.4951 49.8284 68.4951 49.8284C70.1769 53.3165 71.9209 50.9496 72.4815 51.8839C72.7929 52.4445 70.862 53.6902 72.2946 55.9326C73.2912 52.1331 75.3467 51.0742 77.9627 51.3856C82.7588 52.0085 92.6625 61.4138 93.0362 58.6732Z"/>
    <path fill-rule="evenodd" clip-rule="evenodd" d="M106.615 61.3514C106.864 61.6005 107.3 61.4137 107.549 61.1645C107.985 60.7285 108.11 59.7942 107.736 59.1713C107.362 58.5485 106.739 58.0502 105.556 58.237C104.808 58.3616 103.812 58.8599 102.379 59.6074C99.9501 60.9154 97.5209 60.6662 96.7734 60.7908C96.7734 60.7908 99.1403 61.9743 102.006 61.3514C103.064 61.1022 103.874 60.1057 104.871 59.5451C105.805 58.9845 106.677 58.9222 106.864 59.6074C106.926 60.1056 105.556 60.4794 106.615 61.3514Z"/>
    <path fill-rule="evenodd" clip-rule="evenodd" d="M87.9912 58.237C86.7454 58.0502 86.1226 58.5485 85.8111 59.1713C85.4374 59.7942 85.6243 60.6662 85.998 61.1645C86.2471 61.4137 86.6209 61.6005 86.9323 61.3514C87.9289 60.4794 86.6209 60.1057 86.7454 59.6696C86.87 59.0468 87.8043 59.1091 88.7386 59.6074C89.7352 60.1679 90.4827 61.1645 91.6038 61.4137C94.469 62.0366 96.8359 60.8531 96.8359 60.8531C96.0885 60.7285 93.7216 60.9777 91.2301 59.6696C89.7352 58.8599 88.8009 58.3616 87.9912 58.237Z"/>
    <path fill-rule="evenodd" clip-rule="evenodd" d="M114.401 54.4375C116.02 54.1884 117.764 54.9358 119.072 54.4375C117.141 54.0015 115.833 53.1295 113.965 53.3787C111.785 53.6901 111.037 54.9358 108.483 55.9324L108.608 56.057C110.227 55.4341 113.03 54.6244 114.401 54.4375Z"/>
    <path fill-rule="evenodd" clip-rule="evenodd" d="M74.4131 54.4376C75.7211 54.9359 77.4651 54.1885 79.0846 54.4376C80.5172 54.6868 83.3201 55.4965 84.815 56.0571L84.9396 55.9325C82.3858 54.9359 81.7007 53.6902 79.4583 53.3788C77.652 53.0673 76.344 54.0016 74.4131 54.4376Z"/>
    <path fill-rule="evenodd" clip-rule="evenodd" d="M90.5455 54.8112C92.5387 56.1815 94.6565 57.365 96.8365 58.3616L96.8988 58.4239L96.9611 58.3616C115.336 50.202 120.817 33.4468 121.128 14.4493V14.3247L121.004 14.2624C106.429 7.0371 87.4935 7.72226 72.856 14.2624L72.7314 14.3247V14.4493C72.7314 29.8964 77.3407 45.5928 90.5455 54.8112ZM119.696 15.259C119.26 33.0108 114.152 48.894 96.9611 56.8044C80.5796 49.2054 74.4132 32.3879 74.2886 15.3213C88.1786 9.34172 105.868 8.71885 119.696 15.259Z"/>
    <path fill-rule="evenodd" clip-rule="evenodd" d="M96.9604 55.9324C113.466 48.2088 118.449 32.8862 118.948 15.7573C105.556 9.59089 88.5516 10.2138 75.0977 15.8196C75.2845 32.2633 81.2018 48.458 96.9604 55.9324ZM118.076 16.2556C117.515 32.7616 112.719 47.4614 96.9604 55.0604C81.9492 47.7105 76.2188 32.2011 75.8451 16.3179C88.8631 11.0858 105.12 10.5252 118.076 16.2556Z"/>
    <path fill-rule="evenodd" clip-rule="evenodd" d="M45.7614 57.5518C47.1317 57.0535 46.8202 57.2403 48.0037 57.1158C47.8791 57.4895 46.3219 60.3547 48.1283 59.6695C50.7443 58.6729 51.6786 57.2403 55.3535 57.4895C58.6548 57.6763 60.9594 58.8598 63.3886 60.5415C65.9423 62.3479 69.0567 63.5936 72.3579 64.1542C76.2197 64.8394 79.334 64.2788 83.7564 61.5381C83.1958 60.9776 83.1958 59.981 83.3204 59.4827C79.0849 61.9119 76.5934 62.4724 72.9185 61.4136C69.9287 60.5416 67.3126 58.5484 65.6932 56.9289C65.008 56.2437 64.2606 55.5586 63.4509 54.9357C60.5857 52.5688 56.973 49.9528 53.2358 49.4545C51.3672 49.2053 50.1837 48.9562 48.1905 49.0807C47.63 49.143 46.9448 49.0807 46.6957 49.7659C47.194 50.2019 47.4431 50.2019 48.1283 50.3888L46.2596 51.0739H46.1974C45.3876 51.3854 43.1453 52.6934 42.5847 53.3163C42.0241 53.9391 42.3979 53.5654 42.3979 53.7523C42.7716 53.3785 43.4567 53.1294 43.955 53.0048L44.2042 52.9425C48.938 51.5099 54.6684 52.3197 59.2776 54.6243C60.8971 55.434 63.2017 56.9289 65.3195 58.7975C65.5686 59.0467 65.444 59.2958 65.1949 59.1089C62.7657 56.8043 57.7204 54.126 54.2947 53.3163C50.5574 52.4442 46.0728 52.4442 43.083 53.9391L42.3979 54.2506C41.1521 54.998 40.7161 55.2472 40.1555 56.742C39.9064 57.4272 39.6572 58.7352 39.6572 59.4827C39.6572 60.1678 39.8441 61.2267 40.0309 61.9119C40.3424 61.725 41.8373 58.9221 45.7614 57.5518Z"/>
    <path fill-rule="evenodd" clip-rule="evenodd" d="M128.104 56.9289C126.485 58.5484 123.869 60.5416 120.879 61.4136C117.142 62.5347 114.65 61.9119 110.477 59.4827C110.602 59.981 110.602 60.9776 110.041 61.5381C114.463 64.2788 117.578 64.8394 121.44 64.1542C124.741 63.5936 127.855 62.2856 130.409 60.5415C132.838 58.8598 135.143 57.6763 138.444 57.4895C142.119 57.2403 143.115 58.6729 145.669 59.6695C147.413 60.3547 145.918 57.4895 145.794 57.1158C147.039 57.3026 146.666 57.1158 148.036 57.5518C151.96 58.8598 153.455 61.725 153.829 61.9119C154.016 61.2267 154.202 60.1678 154.202 59.4827C154.202 58.7352 154.016 57.4272 153.704 56.742C153.144 55.2472 152.77 54.998 151.462 54.2506L150.777 53.9391C147.787 52.4442 143.24 52.4442 139.565 53.3163C136.139 54.126 131.094 56.742 128.665 59.1089C128.416 59.2958 128.291 58.9844 128.54 58.7975C130.658 56.9289 132.963 55.434 134.582 54.6243C139.191 52.3197 144.922 51.5099 149.656 52.9425L149.905 53.0048C150.403 53.1294 151.026 53.4408 151.462 53.7523C151.462 53.5654 151.836 53.8768 151.275 53.3163C150.714 52.6934 148.41 51.3854 147.662 51.0739H147.6L145.731 50.3888C146.417 50.2019 146.603 50.2019 147.164 49.7659C146.853 49.0807 146.167 49.143 145.669 49.0807C143.676 48.9562 142.493 49.2053 140.624 49.4545C136.824 49.9528 133.274 52.5688 130.409 54.9357C129.537 55.4963 128.852 56.1815 128.104 56.9289Z"/>
    <path fill-rule="evenodd" clip-rule="evenodd" d="M54.7929 34.1321C55.2912 32.3881 56.1009 30.9555 57.2221 29.4606C57.9072 28.5886 60.2118 26.1594 61.1461 26.4085C60.7101 26.9068 59.7135 27.4674 59.2152 27.9657C57.9072 29.2114 56.9729 30.2703 56.1632 31.9521L55.5403 33.3847C55.042 34.9419 54.8551 36.0007 54.8551 37.6202C54.8551 39.6134 55.2912 41.4197 56.2255 43.2883C56.7238 44.3472 57.9695 45.7798 58.7169 46.6518C58.5924 45.8421 58.4678 43.9112 58.9038 42.2294C56.7238 40.5477 57.0975 36.9973 57.8449 34.6304C58.1564 33.5715 58.7792 32.4504 59.589 31.3915C61.0838 29.3983 61.8936 28.9623 63.8245 28.028C64.3228 27.7788 64.5719 28.028 64.8834 27.7788C65.1948 27.4674 65.2571 27.2806 65.8177 27.0314C67.5617 26.2217 68.3091 27.3428 68.6829 27.4674C68.3714 26.8445 68.3091 26.7823 67.8108 26.4708C66.752 25.9102 65.6931 25.8479 64.5096 25.9102C64.8211 25.5365 66.0668 25.6611 66.4405 25.6611C67.624 25.7857 69.368 26.5331 69.1812 28.028C69.1189 28.5886 68.8697 29.4606 68.3091 29.7097C67.7486 29.9589 67.8108 29.8966 67.8731 29.772C68.1223 29.3983 68.2468 29.5852 68.496 29.0869C68.7451 28.5263 68.5583 28.4017 68.3714 27.9034C67.9354 26.9691 66.1291 26.6577 65.1948 28.1526C63.8245 30.5195 66.9388 33.0732 69.6172 30.7063C70.1777 30.208 70.6138 29.3983 70.7383 28.7754C70.9252 28.1526 70.9875 27.2183 70.676 26.5331C69.9286 24.9136 69.7417 24.4153 67.8731 23.481C67.3748 23.2319 67.188 23.1696 66.5651 23.045C65.9422 22.9205 65.8177 22.9205 65.1948 22.8582C62.0181 22.7336 58.8415 24.6022 56.9106 27.2183C56.35 28.028 55.914 28.8377 55.6026 29.6475C55.1043 30.7686 54.3568 34.0698 54.6683 35.2533C54.606 35.191 54.7306 34.5058 54.7929 34.1321Z"/>
    <path fill-rule="evenodd" clip-rule="evenodd" d="M137.073 27.405C135.142 24.789 131.966 22.9204 128.789 23.0449C128.166 23.0449 127.979 23.1072 127.419 23.2318C126.858 23.3564 126.671 23.4187 126.111 23.6678C124.242 24.6021 124.055 25.1004 123.308 26.7199C122.996 27.405 123.059 28.3393 123.246 28.9622C123.432 29.5851 123.806 30.3948 124.367 30.8931C127.045 33.26 130.159 30.644 128.789 28.3393C127.917 26.8444 126.048 27.1559 125.612 28.0902C125.363 28.5262 125.239 28.6508 125.488 29.2736C125.675 29.7719 125.862 29.5851 126.111 29.9588C126.173 30.0834 126.235 30.2079 125.675 29.8965C125.114 29.6474 124.865 28.7753 124.803 28.2148C124.616 26.7199 126.36 26.0347 127.543 25.8479C127.979 25.7856 129.163 25.661 129.474 26.097C128.291 26.0347 127.232 26.097 126.173 26.6576C125.675 26.969 125.612 26.969 125.301 27.6542C125.675 27.4673 126.422 26.4084 128.166 27.2182C128.727 27.4673 128.727 27.7165 129.101 27.9656C129.412 28.277 129.661 28.0279 130.159 28.2148C132.09 29.1491 132.838 29.5851 134.395 31.5783C135.205 32.6371 135.765 33.7583 136.139 34.8172C136.886 37.1841 137.26 40.7344 135.08 42.4162C135.578 44.0979 135.454 45.9665 135.267 46.8386C135.952 45.9665 137.26 44.5339 137.758 43.4751C138.63 41.6065 139.129 39.8001 139.129 37.807C139.129 36.1252 138.942 35.1286 138.444 33.5714L137.821 32.1388C137.011 30.4571 136.077 29.3982 134.769 28.1525C134.208 27.6542 133.274 27.0936 132.838 26.5953C133.71 26.3462 136.077 28.7753 136.762 29.6474C137.883 31.08 138.693 32.5749 139.191 34.3189C139.316 34.6303 139.378 35.3778 139.565 35.6269C139.876 34.4435 139.129 31.1422 138.63 30.0211C138.008 29.0245 137.634 28.2148 137.073 27.405Z"/>
    <path fill-rule="evenodd" clip-rule="evenodd" d="M63.3882 50.5135C64.3848 53.1296 68.0598 55.8079 68.4335 55.621C68.3712 55.185 65.8797 53.7524 66.1911 49.3923C66.2534 48.6449 66.5026 47.5237 66.7517 46.8386C66.814 46.6517 66.8763 46.5271 66.9386 46.278C67.0009 46.0288 67.0632 45.9043 67.1877 45.6551C67.3123 45.2814 67.3746 45.3437 67.3123 45.0322C65.6928 44.5339 65.6928 45.406 65.2568 45.7797C65.3814 45.5928 65.3191 45.4683 65.4437 45.2814C65.8797 44.4717 66.1911 45.0945 66.9386 43.9734C67.7483 42.7276 68.7449 38.243 67.7483 37.1841C66.5026 39.3018 63.5128 38.1184 61.8311 41.295C61.7065 41.4819 61.6442 41.6065 61.6442 41.6065C61.5196 41.6065 61.9556 40.2984 62.0802 40.1116C62.5785 38.8658 61.2705 38.4921 60.959 39.1773C59.4019 43.4751 58.4053 51.4478 65.2568 54.0016C64.7585 53.2541 63.9488 52.569 63.4505 51.5724C62.3294 49.5169 61.7065 45.3437 62.8899 43.2882C62.7654 43.9734 62.6408 44.2848 62.5785 45.0322C62.3916 46.8386 62.7031 48.7072 63.3882 50.5135Z"/>
    <path fill-rule="evenodd" clip-rule="evenodd" d="M130.409 50.5135C131.094 48.7072 131.405 46.8386 131.218 44.97C131.156 44.2848 131.031 43.9111 130.907 43.2259C132.09 45.2814 131.467 49.4546 130.346 51.5101C129.848 52.5067 129.038 53.1919 128.54 53.9393C135.391 51.3233 134.395 43.4128 132.838 39.115C132.526 38.4299 131.156 38.7413 131.717 40.0493C131.841 40.2362 132.339 41.4819 132.153 41.5442C132.153 41.5442 132.09 41.4819 131.966 41.2328C130.284 38.0561 127.294 39.2396 126.048 37.1218C125.052 38.243 125.986 42.6654 126.858 43.9111C127.606 45.0323 127.917 44.4094 128.353 45.2191C128.478 45.4683 128.478 45.5306 128.54 45.7174C128.104 45.3437 128.104 44.4717 126.484 44.97C126.484 45.2191 126.484 45.2191 126.609 45.5929C126.671 45.842 126.734 45.9666 126.858 46.2157C126.92 46.4649 126.983 46.6517 127.045 46.7763C127.294 47.4615 127.543 48.5826 127.606 49.3301C127.917 53.6902 125.426 55.1228 125.363 55.5588C125.737 55.8079 129.412 53.1296 130.409 50.5135Z"/>
    <path fill-rule="evenodd" clip-rule="evenodd" d="M56.786 26.4084C57.222 25.9101 57.658 25.3496 58.2186 24.9758C60.4609 23.1695 61.3329 23.2941 62.2672 22.7335C62.9524 22.2975 63.3884 21.9238 64.1981 21.55C66.129 20.678 66.5027 20.1174 67.4993 18.8094C67.5616 20.678 64.2604 21.7369 63.2638 22.4844L65.257 22.4221C66.129 22.4844 66.3159 22.7335 67.2502 22.0483C67.873 21.6123 68.4336 21.114 69.0565 20.678C69.8039 20.1797 70.0531 19.7437 70.2399 19.1831C69.9908 18.934 69.6794 19.3077 69.7416 18.9963C69.9285 18.7471 70.6137 17.9997 71.0497 17.3768C71.3611 16.9408 71.9217 16.0065 71.1742 15.5082C70.5514 15.3213 69.4302 16.3802 68.9942 16.754C69.3679 15.5705 69.6171 16.754 70.0531 14.5116C70.4891 12.2693 68.8073 10.0892 67.001 10.2761C67.437 10.899 67.5616 10.7744 67.9976 11.7087C68.7451 13.2659 68.4959 14.6985 67.6239 16.1934C64.8833 20.8649 58.9037 21.1763 56.0385 25.661C55.4779 26.533 54.2945 28.6508 54.8551 29.7096C55.6025 28.1525 55.7271 27.7787 56.786 26.4084Z"/>
    <path fill-rule="evenodd" clip-rule="evenodd" d="M124.242 18.9341C124.367 19.2455 123.993 18.8718 123.744 19.1209C123.931 19.7438 124.18 20.1798 124.927 20.6781C125.55 21.1141 126.111 21.6124 126.734 22.0484C127.668 22.7336 127.855 22.4844 128.727 22.4221L130.72 22.4844C129.724 21.6747 126.485 20.6781 126.485 18.8095C127.481 20.1175 127.855 20.6781 129.786 21.5501C130.596 21.9238 131.032 22.2976 131.717 22.7336C132.589 23.2941 133.523 23.1696 135.765 24.9759C136.264 25.4119 136.762 25.9102 137.198 26.4085C138.257 27.7788 138.381 28.1525 139.067 29.5851C139.627 28.5263 138.506 26.4085 137.883 25.5365C134.956 21.0518 128.976 20.7404 126.298 16.0689C125.426 14.574 125.177 13.1414 125.924 11.5842C126.36 10.6499 126.485 10.8367 126.921 10.1516C125.114 9.96473 123.433 12.1448 123.869 14.3871C124.305 16.6294 124.554 15.446 124.927 16.6294C124.491 16.2557 123.37 15.1346 122.747 15.3837C122 15.882 122.561 16.8163 122.872 17.2523C123.37 17.9375 124.118 18.6849 124.242 18.9341Z"/>
    <path fill-rule="evenodd" clip-rule="evenodd" d="M70.4888 34.0075C69.5545 34.1943 68.807 35.1286 68.6825 35.9384C68.6202 36.4367 68.807 36.935 69.3053 36.9972C71.0494 37.3087 70.2396 35.6269 70.8625 35.3155C71.6099 34.8795 72.3574 35.8761 72.6065 37.2464C72.918 38.679 72.6065 40.3607 73.2917 41.6065C75.1603 45.0323 78.3369 46.3403 78.3369 46.3403C77.8386 45.5306 75.534 43.3505 74.662 39.7379C74.1637 37.6824 73.8523 36.2498 73.2917 35.3778C72.482 34.0075 71.4231 33.8829 70.4888 34.0075Z"/>
    <path fill-rule="evenodd" clip-rule="evenodd" d="M120.505 41.6064C121.19 40.3606 120.879 38.6789 121.19 37.2463C121.439 35.876 122.187 34.8794 122.934 35.3154C123.495 35.6268 122.747 37.2463 124.491 36.9971C124.99 36.9348 125.177 36.4366 125.114 35.9383C124.99 35.1285 124.242 34.1942 123.308 34.0074C122.374 33.8205 121.315 34.0074 120.443 35.3777C119.882 36.2497 119.571 37.6823 119.072 39.7378C118.263 43.2881 115.958 45.5305 115.397 46.3402C115.397 46.4025 118.636 45.0322 120.505 41.6064Z"/>
    <path fill-rule="evenodd" clip-rule="evenodd" d="M101.445 75.1169C112.968 81.7193 119.758 66.459 137.759 66.2722C118.45 58.4863 115.709 75.8021 101.445 75.1169Z"/>
    <path fill-rule="evenodd" clip-rule="evenodd" d="M171.705 73.5598C146.914 61.2893 134.27 68.1408 115.896 76.5496C134.644 75.2415 140.312 66.0854 171.705 73.5598Z"/>
    <path fill-rule="evenodd" clip-rule="evenodd" d="M134.582 75.2413C155.324 75.8642 184.225 79.9128 195 77.8574C176.501 77.7328 151.773 68.7012 134.582 75.2413Z"/>
    <path fill-rule="evenodd" clip-rule="evenodd" d="M57.2842 66.2722C75.2851 66.459 82.0744 81.657 93.5975 75.1169C79.3338 75.8021 76.5931 58.4863 57.2842 66.2722Z"/>
    <path fill-rule="evenodd" clip-rule="evenodd" d="M23.3379 73.5598C54.7305 66.0854 60.3986 75.2415 79.147 76.5496C60.7724 68.1408 48.1281 61.2893 23.3379 73.5598Z"/>
    <path fill-rule="evenodd" clip-rule="evenodd" d="M0.104492 77.8574C10.8801 79.9128 39.7813 75.8642 60.5229 75.2413C43.2694 68.7012 18.6037 77.7328 0.104492 77.8574Z"/>
    <path d="M100.947 20.8648C100.947 21.0517 100.822 21.3008 100.511 21.6746C100.2 22.0483 99.7013 22.4843 98.9538 23.0449C98.331 23.5432 97.7704 23.9792 97.2721 24.2906C96.8361 24.6021 96.4001 24.9135 96.0264 25.1626C95.6526 25.4118 95.3412 25.6609 95.0298 25.8478C94.7183 26.0347 94.4069 26.2838 94.0332 26.5952C94.1577 26.8444 94.3446 27.2804 94.4692 27.841C94.656 28.4016 94.7806 28.9622 94.9675 29.585C95.092 30.021 95.2166 30.457 95.3412 30.893C95.4658 31.3291 95.5903 31.7028 95.7149 32.0765C95.8395 32.4502 96.0263 32.6994 96.2132 32.8862C96.4001 33.0731 96.5869 33.1977 96.7738 33.1977C96.9607 33.1977 97.1475 33.1354 97.3967 33.0731C97.6458 33.0108 97.7704 32.8862 97.9572 32.6994L98.0818 32.8862C98.0195 32.9485 97.9572 33.0731 97.7704 33.1977C97.5835 33.3845 97.4589 33.5091 97.2098 33.696C97.0229 33.8828 96.7738 34.0074 96.5246 34.132C96.2755 34.2565 96.0886 34.3188 95.8395 34.3188C95.5903 34.3188 95.3412 34.2565 95.1543 34.0697C94.9675 33.8828 94.8429 33.6337 94.656 33.3222C94.5315 33.0108 94.4069 32.6371 94.2823 32.2011C94.1577 31.7651 94.0332 31.3291 93.8463 30.8308C93.784 30.6439 93.6594 30.3325 93.5972 29.9587C93.5349 29.585 93.4103 29.2113 93.2857 28.8376C93.1611 28.4639 93.0366 28.0901 92.912 27.7787C92.7874 27.4673 92.6628 27.2181 92.5383 27.1558C92.2891 27.7787 92.04 28.4639 91.7908 29.0867C91.604 29.6473 91.3548 30.2079 91.1057 30.7685C90.8565 31.3291 90.6697 31.8896 90.4828 32.3256C90.3582 32.5748 90.2959 32.7617 90.2337 32.9485C90.1714 33.1354 90.1091 33.26 89.9845 33.3845C89.9222 33.5091 89.8599 33.5714 89.7977 33.696C89.7354 33.7583 89.6731 33.8205 89.5485 33.8828C89.3616 34.0074 89.1748 34.0697 88.9879 34.1943C88.8011 34.2565 88.6142 34.3188 88.4896 34.3188C88.365 34.3188 88.3028 34.3188 88.3028 34.2565C88.3028 34.1943 88.2405 34.1943 88.2405 34.132C88.2405 34.0697 88.3028 33.9451 88.365 33.7583C88.4273 33.5714 88.6142 33.26 88.8011 32.8862C89.1125 32.2011 89.4239 31.5782 89.6108 31.0799C89.8599 30.5816 90.0468 30.021 90.2337 29.585C90.4205 29.0867 90.6074 28.5884 90.7942 28.0901C90.9811 27.5918 91.2303 27.0313 91.4794 26.4084C91.6663 25.9101 91.8531 25.4118 92.1023 24.8512C92.2891 24.2906 92.476 23.8546 92.6628 23.3563C92.8497 22.9203 92.9743 22.4843 93.0989 22.1729C93.2234 21.8614 93.2857 21.6123 93.348 21.55C93.2234 21.55 93.0366 21.55 92.912 21.4877C92.7874 21.4877 92.6628 21.4877 92.5383 21.4254C92.4137 21.4254 92.2891 21.4254 92.1645 21.4254C91.7285 21.4254 91.168 21.4254 90.5451 21.4877C89.9222 21.55 89.2371 21.6123 88.4896 21.7991C87.7422 21.986 86.9325 22.2974 86.0604 22.6712C85.1884 23.0449 84.2541 23.6055 83.3198 24.2906C82.9461 24.5398 82.5724 24.8512 82.3232 25.1626C82.0118 25.4741 81.7626 25.7232 81.5135 26.0347C81.3266 26.3461 81.1398 26.5952 81.0152 26.8444C80.8906 27.0935 80.8283 27.3427 80.8283 27.5918C80.8283 27.7164 80.8283 27.7787 80.8906 27.9033C80.9529 28.0278 81.0775 28.0278 81.2643 28.0278C81.4512 28.0278 81.5758 28.0278 81.6381 27.9656C81.7626 27.9033 81.8872 27.841 82.0741 27.7787V28.0278C81.8249 28.3393 81.4512 28.5261 81.1398 28.713C80.766 28.8376 80.4546 28.8999 80.2677 28.8999C79.7694 28.8999 79.458 28.6507 79.458 28.1524C79.458 27.7787 79.5826 27.405 79.894 26.969C80.2054 26.533 80.5169 26.0969 80.9529 25.6609C81.3889 25.2249 81.8249 24.8512 82.3232 24.4775C82.8215 24.1038 83.2575 23.7923 83.6312 23.5432C84.6278 22.9203 85.6244 22.422 86.5587 22.0483C87.493 21.6746 88.365 21.3631 89.2371 21.1763C90.1091 20.9894 90.9188 20.8648 91.6663 20.8026C92.4137 20.7403 93.1611 20.7403 93.784 20.7403C93.9709 20.7403 94.22 20.7403 94.4692 20.8026C94.7183 20.8648 94.9052 20.8648 95.0298 20.8648L92.5383 26.969C92.9743 26.6575 93.4103 26.3461 93.7217 26.0969C94.0332 25.8478 94.4069 25.5987 94.7183 25.3495C95.0298 25.1004 95.4035 24.8512 95.7149 24.6021C96.0264 24.3529 96.4624 24.0415 96.8984 23.73C97.0852 23.6055 97.2721 23.4186 97.5212 23.2317C97.7081 23.0449 97.895 22.858 98.0818 22.6712C98.2687 22.4843 98.3933 22.2974 98.5178 22.1729C98.6424 21.986 98.7047 21.8614 98.7047 21.6746C98.7047 21.55 98.6424 21.4254 98.5178 21.4254C98.3933 21.3631 98.331 21.3631 98.2687 21.3631V21.2386C98.6424 21.0517 99.0161 20.8648 99.3898 20.8026C99.7636 20.7403 100.013 20.678 100.2 20.678C100.324 20.678 100.386 20.678 100.511 20.7403C100.885 20.6157 100.947 20.7403 100.947 20.8648Z" fill="currentColor"/>
    <path d="M107.113 36.9348C107.113 38.8657 105.618 40.8589 102.504 40.8589C102.068 40.8589 100.262 40.7344 100.075 40.7344C100.013 40.7344 98.8292 40.7966 98.2686 40.7966C98.0817 40.7966 97.9572 40.7344 97.9572 40.6721C97.9572 40.6098 98.0194 40.5475 98.0817 40.5475C98.2686 40.5475 98.4555 40.5475 98.6423 40.4852C98.9537 40.4229 99.016 40.2361 99.1406 39.6755C99.2029 39.1772 99.2652 37.7446 99.2652 35.5022V32.3256C99.2652 29.2736 99.2652 28.5261 99.2029 28.2147C99.1406 27.7787 99.016 27.5295 98.4554 27.4049C98.3309 27.3427 98.0194 27.3427 97.8326 27.3427C97.7703 27.3427 97.708 27.2804 97.708 27.2181C97.708 27.0935 97.7703 27.0935 98.0194 27.0935C98.8292 27.0935 99.9503 27.1558 100.075 27.1558C100.511 27.1558 101.196 27.0935 102.068 27.0935C105.058 27.0935 105.681 28.8998 105.681 29.8341C105.681 31.329 104.809 32.201 103.999 33.0731C105.307 33.5091 107.113 34.8171 107.113 36.9348ZM100.76 32.8239C100.76 32.9485 100.822 33.0108 100.885 33.0108C101.009 33.0108 101.321 33.0731 102.006 33.0731C103.002 33.0731 103.252 33.0108 103.625 32.5748C103.999 32.1388 104.248 31.5159 104.248 30.7684C104.248 29.2736 103.563 27.6541 101.819 27.6541C101.632 27.6541 101.258 27.6541 100.947 27.7164C100.76 27.7787 100.76 27.7787 100.76 27.9032V32.8239ZM100.76 38.1183C100.76 39.4886 100.822 39.8001 101.383 40.0492C101.881 40.2983 102.629 40.2983 103.002 40.2983C103.999 40.2983 105.556 39.8001 105.556 37.7446C105.556 36.6857 105.182 35.0662 103.812 34.0696C103.127 33.5714 102.504 33.5091 101.881 33.5091C100.822 33.5091 100.822 33.5091 100.822 33.6336V38.1183H100.76Z" fill="currentColor"/>
  </symbol>

  <symbol id="logo-left" viewBox="0 0 304 222">
    <path fill-rule="evenodd" clip-rule="evenodd" d="M302 157.406C287.162 152.036 263.904 122.405 250.069 122.008C242.048 121.809 239.843 125.587 233.426 127.974C227.812 129.962 223 129.167 223 129.167C228.414 140.303 234.028 132.746 235.833 135.729C236.835 137.519 230.619 141.496 235.231 148.656C238.439 136.525 245.056 133.144 253.477 134.138C268.916 136.127 300.797 166.156 302 157.406Z"/>
    <path fill-rule="evenodd" clip-rule="evenodd" d="M242 143.682C246.225 145.318 251.858 142.864 257.089 143.682C261.716 144.5 270.769 147.159 275.598 149L276 148.591C267.751 145.318 265.538 141.227 258.296 140.205C252.462 139.182 248.237 142.25 242 143.682Z"/>
    <path fill-rule="evenodd" clip-rule="evenodd" d="M148.794 153.661C153.237 152.04 152.227 152.648 156.065 152.243C155.661 153.458 150.612 162.777 156.469 160.549C164.952 157.307 167.982 152.648 179.898 153.458C190.603 154.066 198.076 157.915 205.953 163.385C214.234 169.261 224.333 173.312 235.038 175.136C247.561 177.364 257.66 175.541 272 166.627C270.182 164.803 270.182 161.562 270.586 159.941C256.852 167.842 248.773 169.666 236.856 166.222C227.161 163.385 218.678 156.902 213.427 151.635C211.205 149.406 208.781 147.178 206.155 145.152C196.864 137.453 185.15 128.944 173.031 127.323C166.972 126.513 163.134 125.703 156.671 126.108C154.853 126.31 152.631 126.108 151.823 128.336C153.439 129.754 154.247 129.754 156.469 130.362L150.41 132.591H150.208C147.582 133.604 140.311 137.858 138.493 139.884C136.675 141.91 137.887 140.695 137.887 141.302C139.099 140.087 141.321 139.276 142.936 138.871L143.744 138.669C159.095 134.009 177.677 136.643 192.623 144.139C197.874 146.772 205.347 151.635 212.215 157.713C213.023 158.523 212.619 159.333 211.811 158.726C203.934 151.23 187.573 142.518 176.465 139.884C164.346 137.048 149.804 137.048 140.109 141.91L137.887 142.923C133.847 145.354 132.434 146.165 130.616 151.027C129.808 153.256 129 157.51 129 159.941C129 162.17 129.606 165.614 130.212 167.842C131.222 167.235 136.069 158.118 148.794 153.661Z"/>
    <path fill-rule="evenodd" clip-rule="evenodd" d="M177.644 77.9683C179.265 72.2524 181.898 67.5572 185.543 62.6579C187.771 59.8 195.265 51.8386 198.303 52.6551C196.885 54.2882 193.645 56.1255 192.024 57.7586C187.771 61.8413 184.733 65.3117 182.1 70.8234L180.075 75.5186C178.454 80.6221 177.847 84.0924 177.847 89.4C177.847 95.9324 179.265 101.852 182.303 107.977C183.923 111.447 187.974 116.142 190.404 119C189.999 116.346 189.594 110.018 191.012 104.506C183.923 98.9945 185.138 87.3586 187.569 79.6014C188.581 76.131 190.607 72.4565 193.24 68.9862C198.1 62.4538 200.733 61.0248 207.012 57.9627C208.632 57.1462 209.443 57.9627 210.455 57.1462C211.468 56.1255 211.67 55.5131 213.493 54.6965C219.164 52.0427 221.595 55.7172 222.81 56.1255C221.797 54.0841 221.595 53.88 219.974 52.8593C216.531 51.022 213.088 50.8179 209.24 51.022C210.253 49.7972 214.303 50.2055 215.519 50.2055C219.367 50.6138 225.038 53.0634 224.43 57.9627C224.228 59.8 223.418 62.6579 221.595 63.4745C219.772 64.291 219.974 64.0869 220.177 63.6786C220.987 62.4538 221.392 63.0662 222.202 61.4331C223.012 59.5958 222.405 59.1875 221.797 57.5544C220.38 54.4924 214.506 53.4717 211.468 58.371C207.012 66.1282 217.139 74.4979 225.848 66.7407C227.671 65.1076 229.089 62.4538 229.494 60.4124C230.101 58.371 230.304 55.3089 229.291 53.0634C226.861 47.7558 226.253 46.1227 220.177 43.0606C218.557 42.2441 217.949 42.04 215.924 41.6317C213.898 41.2234 213.493 41.2234 211.468 41.0193C201.139 40.611 190.809 46.7351 184.531 55.3089C182.708 57.9627 181.29 60.6165 180.277 63.2703C178.657 66.9448 176.227 77.7641 177.239 81.6427C177.037 81.4386 177.442 79.1931 177.644 77.9683Z"/>
    <path fill-rule="evenodd" clip-rule="evenodd" d="M205.589 131.357C208.831 139.866 220.784 148.578 222 147.97C221.797 146.552 213.693 141.892 214.706 127.71C214.909 125.279 215.719 121.632 216.53 119.403C216.732 118.795 216.935 118.39 217.138 117.58C217.34 116.769 217.543 116.364 217.948 115.554C218.353 114.338 218.556 114.541 218.353 113.528C213.086 111.907 213.086 114.743 211.667 115.959C212.073 115.351 211.87 114.946 212.275 114.338C213.693 111.704 214.706 113.73 217.138 110.084C219.771 106.032 223.013 91.4442 219.771 88C215.719 94.8884 205.995 91.039 200.524 101.372C200.119 101.979 199.917 102.385 199.917 102.385C199.511 102.385 200.93 98.13 201.335 97.5222C202.956 93.4702 198.701 92.2546 197.688 94.4832C192.623 108.463 189.381 134.396 211.667 142.702C210.047 140.271 207.413 138.042 205.792 134.801C202.145 128.115 200.119 114.541 203.969 107.855C203.563 110.084 203.158 111.097 202.956 113.528C202.348 119.403 203.361 125.481 205.589 131.357Z"/>
    <path fill-rule="evenodd" clip-rule="evenodd" d="M184.664 53.1345C186.063 51.4944 187.461 49.6493 189.259 48.4192C196.45 42.474 199.247 42.884 202.243 41.0389C204.441 39.6038 205.839 38.3738 208.436 37.1437C214.628 34.2736 215.827 32.4285 219.023 28.1233C219.223 34.2736 208.635 37.7587 205.439 40.2188L211.832 40.0138C214.628 40.2188 215.228 41.0389 218.224 38.7838C220.222 37.3487 222.019 35.7086 224.017 34.2736C226.414 32.6335 227.213 31.1984 227.813 29.3533C227.013 28.5333 226.015 29.7633 226.214 28.7383C226.814 27.9182 229.011 25.4581 230.409 23.408C231.408 21.973 233.206 18.8978 230.809 17.2577C228.811 16.6427 225.216 20.1279 223.817 21.3579C225.016 17.4627 225.815 21.3579 227.213 13.9776C228.612 6.59722 223.218 -0.578133 217.425 0.0368968C218.823 2.087 219.223 1.67698 220.621 4.75213C223.018 9.87738 222.219 14.5926 219.423 19.5128C210.633 34.8886 191.456 35.9136 182.267 50.6744C180.469 53.5445 176.674 60.5148 178.472 64C180.869 58.8748 181.268 57.6447 184.664 53.1345Z"/>
    <path fill-rule="evenodd" clip-rule="evenodd" d="M229.018 77.1235C225.925 77.7428 223.451 80.8395 223.038 83.5233C222.832 85.1749 223.451 86.8265 225.1 87.0329C230.874 88.0652 228.193 82.4911 230.255 81.4589C232.73 80.0137 235.204 83.3169 236.029 87.8587C237.06 92.607 236.029 98.1811 238.297 102.31C244.484 113.665 255 118 255 118C253.35 115.316 245.721 108.091 242.834 96.1166C241.184 89.3038 240.153 84.5556 238.297 81.6653C235.617 77.1235 232.111 76.7106 229.018 77.1235Z"/>
    <path fill-rule="evenodd" clip-rule="evenodd" d="M186 182.618C244.494 183.231 266.556 233.1 304 211.64C257.65 213.888 248.744 157.07 186 182.618Z"/>
    <path fill-rule="evenodd" clip-rule="evenodd" d="M76 206.099C177.813 181.346 196.195 211.668 257 216C197.407 188.153 156.4 165.463 76 206.099Z"/>
    <path fill-rule="evenodd" clip-rule="evenodd" d="M0 220.134C35.1351 226.78 129.37 213.69 197 211.677C140.743 190.532 60.3186 219.732 0 220.134Z"/>
  </symbol>

  <symbol id="logo-footer" viewBox="0 0 145 13">
    <path fill-rule="evenodd" clip-rule="evenodd" d="M105.009 1.94299C105.31 2.31909 105.461 2.69518 105.31 3.1465C104.784 5.55351 108.394 3.22172 106.138 1.26601C103.129 -1.5171 97.6377 2.16865 95.0803 4.27479C91.545 6.83224 92.9741 5.8544 89.9654 6.60659C88.9123 6.83225 87.8592 7.20834 87.0318 8.03575C87.3327 8.11097 87.6336 7.96054 88.0097 7.96054C88.3858 7.88532 88.6114 7.88531 88.9123 7.81009C89.4388 7.73487 90.2662 7.58444 90.7928 7.96054C89.2884 9.7658 87.4079 8.41185 87.7088 10.3676C84.4743 10.1419 82.7443 7.50921 84.023 6.6818C84.5496 6.30571 86.43 6.30571 85.9787 5.32786C85.3018 4.04914 82.4434 5.70395 82.97 8.18619C83.4965 10.2923 85.8283 10.3676 87.4831 10.6684C87.0318 11.1197 86.6557 11.0445 86.2044 11.0445C85.1513 11.0445 85.6779 11.3454 85.5274 11.9472C82.5186 13.0754 78.6825 12.8498 76.125 10.7437C74.3949 9.23927 73.8684 6.75703 74.2445 4.87654C74.3949 4.12435 74.9967 3.07128 75.5232 2.3943C76.802 0.889918 79.2842 0.664267 80.7886 1.94299C81.5408 2.54475 81.8417 4.57567 81.2399 5.32786L80.7886 5.8544C80.1116 6.68181 77.4789 6.6818 78.7577 5.17742C78.9833 4.87654 79.5099 4.80133 79.3594 4.19957C79.1338 3.22172 77.7046 3.37215 77.1781 4.04913C76.2754 5.17742 77.3285 7.73487 79.8107 6.90746C81.3903 6.38093 82.2178 5.25264 81.9921 3.59782C81.7664 1.64212 80.2621 0.513828 78.1559 0.438609C77.5542 0.438609 76.9524 0.438609 76.5763 0.438609C75.9745 0.438609 75.2224 0.137727 74.771 0.739481C74.3197 1.34124 74.5454 2.09343 74.4702 2.61996C73.9436 2.7704 73.1162 2.69519 72.8153 3.59782C72.7401 3.89869 72.8153 4.27479 72.8906 4.57567C73.1162 5.25264 73.5675 5.25264 73.4171 5.92961C73.3419 6.08005 73.3419 6.2305 73.2667 6.45615C73.1914 6.83225 73.1162 7.0579 73.1162 7.434C73.1162 8.26141 73.4171 8.48707 74.0189 9.16404C75.2224 10.6684 75.8241 11.3454 77.4037 12.1728C81.0143 13.8276 85.3018 13.3011 88.5362 10.8941C90.9432 9.01361 102.076 -1.59231 105.009 1.94299Z"/>
    <path fill-rule="evenodd" clip-rule="evenodd" d="M40.4703 1.94299C40.1694 2.31909 40.019 2.69518 40.1695 3.1465C40.696 5.55351 37.0854 3.22172 39.342 1.26601C42.3508 -1.5171 47.8418 2.16865 50.3993 4.27479C53.9346 6.83224 52.5807 5.8544 55.5142 6.60659C56.5673 6.83225 57.6204 7.20834 58.4478 8.03575C58.1469 8.11097 57.846 7.96054 57.4699 7.96054C57.0938 7.88532 56.8682 7.88531 56.4921 7.81009C55.9655 7.73487 55.1381 7.58444 54.6116 7.96054C56.116 9.7658 57.9965 8.41185 57.6956 10.3676C60.93 10.1419 62.6601 7.50921 61.3813 6.6818C60.8548 6.30571 58.9743 6.30571 59.4256 5.32786C60.1026 4.04914 62.9609 5.70395 62.4344 8.18619C61.9079 10.2923 59.5761 10.3676 57.9212 10.6684C58.3726 11.1197 58.7487 11.0445 59.2 11.0445C60.253 11.0445 59.7265 11.3454 59.8769 11.9472C62.8857 13.0754 66.7219 12.8498 69.2794 10.7437C71.0094 9.23927 71.5359 6.75703 71.1599 4.87654C71.0094 4.12435 70.4077 3.07128 69.8811 2.3943C68.6024 0.889918 66.1202 0.664267 64.6158 1.94299C63.8636 2.54475 63.5627 4.57567 64.1644 5.32786L64.6158 5.8544C65.2927 6.68181 67.9254 6.6818 66.6467 5.17742C66.421 4.87654 65.8945 4.80133 66.0449 4.19957C66.2706 3.22172 67.6998 3.37215 68.2263 4.04913C69.1289 5.17742 68.0759 7.73487 65.5936 6.90746C64.014 6.38093 63.1866 5.25264 63.4122 3.59782C63.6379 1.64212 65.1423 0.513828 67.2484 0.438609C67.8502 0.438609 68.452 0.438609 68.8281 0.438609C69.4298 0.438609 70.182 0.137727 70.6333 0.739481C71.0846 1.34124 70.859 2.09343 70.9342 2.61996C71.4607 2.7704 72.3634 2.69519 72.589 3.59782C72.6642 3.89869 72.589 4.27479 72.5138 4.57567C72.2881 5.25264 71.8368 5.25264 71.9873 5.92961C72.0625 6.08005 72.0625 6.2305 72.1377 6.45615C72.2129 6.83225 72.2881 7.0579 72.2881 7.434C72.2881 8.26141 71.9873 8.48707 71.3855 9.16404C70.182 10.6684 69.5802 11.3454 68.0006 12.1728C64.3901 13.8276 60.1026 13.3011 56.8682 10.8941C54.5364 9.01361 43.4039 -1.59231 40.4703 1.94299Z"/>
    <path fill-rule="evenodd" clip-rule="evenodd" d="M47.9922 0.288086C48.8196 0.438526 51.3771 1.79248 54.3106 1.04028C56.0407 0.739405 57.3194 0.363308 58.222 0.513748C59.576 0.664187 60.1025 1.49161 60.253 2.24381C60.4034 2.996 59.9521 3.89864 59.3503 4.27474C58.9742 4.5004 58.5229 4.5004 58.2973 4.1243C57.4698 2.84556 59.0495 2.92078 59.0495 2.39424C59.1247 1.64204 58.1468 1.41639 56.9433 1.71727C53.4832 2.46947 51.4523 3.67298 47.9922 0.288086Z"/>
    <path fill-rule="evenodd" clip-rule="evenodd" d="M97.7879 0.288086C96.9605 0.438526 94.4031 1.79248 91.4695 1.04028C89.7395 0.739405 88.4607 0.363308 87.6333 0.513748C86.2794 0.664187 85.7528 1.49161 85.6024 2.24381C85.452 2.996 85.9033 3.89864 86.505 4.27474C86.8811 4.5004 87.3324 4.5004 87.5581 4.1243C88.3855 2.84556 86.8059 2.92078 86.8059 2.39424C86.7307 1.64204 87.7085 1.41639 88.9121 1.71727C92.2217 2.46947 94.2526 3.67298 97.7879 0.288086Z"/>
    <path fill-rule="evenodd" clip-rule="evenodd" d="M0.980469 2.39428L24.0728 2.01819L47.0899 1.64209V2.39428V3.22169L24.0728 2.8456L0.980469 2.39428Z"/>
    <path fill-rule="evenodd" clip-rule="evenodd" d="M144.048 2.39428L121.181 2.01819L98.2393 1.64209V2.39428V3.22169L121.181 2.77038L144.048 2.39428Z"/>
  </symbol>

  <symbol id="logo-name" viewBox="0 0 266 24">
    <path d="M15.9462 0.426588H16.924L18.6541 6.82023L17.3754 7.19633C16.6984 5.69194 16.1719 4.7141 15.7958 4.26278C15.194 3.43537 14.517 2.83361 13.6144 2.30707C12.7118 1.85576 11.8091 1.6301 10.7561 1.6301C9.55255 1.6301 8.34904 1.93097 7.37119 2.60794C6.31811 3.28492 5.4907 4.26278 4.81373 5.54151C4.13675 6.82024 3.83588 8.24941 3.83588 9.90423C3.83588 11.5591 4.13675 12.9882 4.81373 14.3422C5.4907 15.6209 6.31811 16.5987 7.4464 17.3509C8.5747 18.0279 9.77821 18.404 11.0569 18.404C12.2604 18.404 13.5392 18.0279 14.8179 17.3509C16.0966 16.674 17.2249 15.6961 18.1276 14.4174L19.2558 15.1696C18.6541 15.997 18.0523 16.7492 17.4506 17.2757C16.3975 18.2536 15.3444 18.9305 14.2161 19.3819C13.0879 19.8332 11.8843 20.0588 10.5304 20.0588C7.52162 20.0588 5.1146 18.9305 3.30934 16.7492C1.80495 14.9439 0.977539 12.7626 0.977539 10.2051C0.977539 8.32462 1.42886 6.6698 2.25627 5.16541C3.08368 3.66102 4.28719 2.45751 5.79158 1.55488C7.29597 0.652246 8.87557 0.200928 10.6056 0.200928C11.5083 0.200928 12.4109 0.351366 13.1631 0.577025C13.9153 0.802683 14.7427 1.254 15.5701 1.78054L15.9462 0.426588Z" fill="currentColor"/>
    <path d="M41.3702 1.63H41.0693C40.4676 1.63 39.941 1.78044 39.7154 2.0061C39.4897 2.23176 39.1888 2.60785 38.9632 3.05916L32.4943 16.8995C31.8173 18.3287 31.2156 19.1561 30.5386 19.457C29.8616 19.7579 29.1847 19.9083 28.4325 19.9083C27.5298 19.9083 26.8529 19.6827 26.2511 19.3066C25.6494 18.9305 25.3485 18.4039 25.3485 17.8022C25.3485 17.4261 25.4237 17.2004 25.6494 16.8995C25.875 16.5987 26.1759 16.5234 26.552 16.5234C26.7776 16.5234 27.0033 16.5987 27.1537 16.6739C27.3042 16.7491 27.6051 17.05 27.9812 17.5013C28.3573 17.9526 28.8086 18.1783 29.1847 18.1783C29.5608 18.1783 29.9369 18.0278 30.2377 17.8022C30.5386 17.5765 30.9147 16.8995 31.2908 15.9969L32.1934 14.0412L25.3485 3.13439C24.8972 2.38219 24.5211 1.93087 24.2954 1.85565C24.0697 1.70521 23.5432 1.63 22.791 1.63V0.501709H29.9369V1.63H29.1094C28.3573 1.63 27.9812 1.85565 27.9812 2.23175C27.9812 2.53262 28.1316 2.90873 28.3573 3.28483L33.3969 11.3333L37.1579 3.2096C37.3836 2.75828 37.4588 2.38219 37.4588 2.15653C37.4588 1.93088 37.3836 1.78043 37.2331 1.70521C37.0827 1.62999 36.7818 1.63 36.3305 1.63H35.5783V0.501709H41.3702V1.63Z" fill="currentColor"/>
    <path d="M47.6133 1.63V0.501709H63.0333V1.63H62.4316C61.7546 1.63 61.3033 1.78044 61.0776 2.0061C60.852 2.23176 60.7767 2.75829 60.7767 3.51048V16.5987C60.7767 17.5013 60.852 18.0278 61.0776 18.1783C61.3033 18.4039 61.8298 18.4791 62.6572 18.4791H63.1085L64.7634 23.1427L63.5599 23.5941C63.1838 22.4658 62.582 21.5631 61.905 20.9614C61.2281 20.3596 60.5511 19.9835 60.0246 19.8331C59.4228 19.6827 58.4449 19.6074 57.0158 19.6074H49.0425C47.5381 19.6074 46.4851 19.6826 45.8081 19.9083C45.1311 20.134 44.5294 20.5101 43.9276 21.1118C43.3258 21.7136 42.8745 22.541 42.4984 23.5188L41.2949 23.0675L42.9497 18.4039C43.7019 18.4039 44.3037 18.3287 44.6046 18.1783C44.9055 18.0278 45.2815 17.8022 45.5072 17.5013C45.8081 17.2004 45.9585 16.7491 46.109 16.2978L49.9452 3.88658C50.0956 3.43527 50.1708 3.13438 50.1708 2.8335C50.1708 2.00609 49.5691 1.55478 48.3655 1.55478H47.6133V1.63ZM58.1441 1.93087H52.3522L47.839 16.5987C47.6886 16.9748 47.6886 17.2004 47.6886 17.3508C47.6886 17.6517 47.839 17.8774 48.0647 17.9526C48.2903 18.0278 48.7416 18.103 49.4186 18.103H56.3388C57.0158 18.103 57.4671 18.0278 57.6927 17.9526C57.9184 17.8774 58.0688 17.7269 58.0688 17.5765C58.0688 17.4261 58.1441 16.8995 58.1441 16.0721V1.93087Z" fill="currentColor"/>
    <path d="M82.5157 1.63V0.501709H97.9357V1.63H97.2587C96.5817 1.63 96.1304 1.78044 95.9047 2.0061C95.6791 2.23176 95.6039 2.75829 95.6039 3.51048V16.5987C95.6039 17.5013 95.6791 18.0278 95.9047 18.1783C96.1304 18.4039 96.6569 18.4791 97.4844 18.4791H97.9357L99.5905 23.1427L98.387 23.5941C98.0109 22.4658 97.4091 21.5631 96.7322 20.9614C96.0552 20.3596 95.3782 19.9835 94.8517 19.8331C94.2499 19.6827 93.2721 19.6074 91.8429 19.6074H83.9449C82.4405 19.6074 81.3874 19.6826 80.7104 19.9083C80.0335 20.134 79.4317 20.5101 78.8299 21.1118C78.2282 21.7136 77.7769 22.541 77.4008 23.5188L76.1973 23.0675L77.8521 18.4039C78.6043 18.4039 79.206 18.3287 79.5069 18.1783C79.8078 18.0278 80.1839 17.8022 80.4096 17.5013C80.7104 17.2004 80.8609 16.7491 81.0113 16.2978L84.8475 3.88658C84.9979 3.43527 85.0732 3.13438 85.0732 2.8335C85.0732 2.00609 84.4714 1.55478 83.2679 1.55478H82.5157V1.63ZM92.9712 1.93087H87.1793L82.6661 16.5987C82.5157 16.9748 82.5157 17.2004 82.5157 17.3508C82.5157 17.6517 82.6661 17.8774 82.8918 17.9526C83.1174 18.0278 83.5688 18.103 84.2457 18.103H91.1659C91.8429 18.103 92.2942 18.0278 92.5199 17.9526C92.7455 17.8774 92.896 17.7269 92.896 17.5765C92.896 17.4261 92.9712 16.8995 92.9712 16.0721V1.93087Z" fill="currentColor"/>
    <path d="M110.046 0.426514H112.302L118.245 16.4482C118.545 17.2757 118.846 17.8022 119.147 18.0278C119.448 18.2535 119.824 18.4039 120.351 18.4039H120.652V19.5322H113.807V18.4039C114.032 18.4039 114.258 18.4039 114.484 18.4039C114.935 18.4039 115.236 18.3287 115.311 18.2535C115.612 18.1031 115.687 17.8774 115.687 17.5765C115.687 17.3509 115.537 16.8996 115.311 16.1474L114.032 12.4616H107.112L105.608 16.5987C105.457 17.05 105.382 17.3509 105.382 17.5013C105.382 17.6518 105.457 17.8774 105.532 17.9526C105.608 18.1031 105.758 18.1783 105.909 18.2535C106.059 18.3287 106.36 18.3287 106.736 18.3287C106.962 18.3287 107.187 18.3287 107.338 18.3287V19.457H101.621V18.3287C102.148 18.3287 102.524 18.2535 102.749 18.1783C102.975 18.1031 103.201 17.8774 103.351 17.6518C103.502 17.4261 103.727 16.8996 104.028 16.1474L110.046 0.426514ZM107.639 11.1829H113.581L110.647 2.98397L107.639 11.1829Z" fill="currentColor"/>
    <path d="M150.137 1.93087H140.509V16.5987C140.509 17.4261 140.585 17.9526 140.81 18.1783C141.036 18.4039 141.562 18.4791 142.39 18.4791H142.916V19.6074H135.545V18.4791H135.996C136.824 18.4791 137.35 18.4039 137.576 18.2535C137.802 18.103 137.952 17.5765 137.952 16.8243V3.5857C137.952 2.75828 137.877 2.30697 137.651 2.0061C137.425 1.78044 136.974 1.63 136.372 1.63H135.62V0.501709H155.177V1.63H154.5C153.823 1.63 153.372 1.78044 153.146 2.0061C152.921 2.23176 152.845 2.75829 152.845 3.51048V16.5987C152.845 17.5013 152.921 18.0278 153.146 18.1783C153.372 18.4039 153.898 18.4791 154.801 18.4791H155.177V19.6074H147.881V18.4791H148.407C149.084 18.4791 149.536 18.4039 149.761 18.3287C149.987 18.2535 150.137 18.103 150.213 17.9526C150.288 17.8022 150.288 17.2756 150.288 16.4482V1.93087H150.137Z" fill="currentColor"/>
    <path d="M159.916 0.426514H167.513C169.845 0.426514 171.425 0.576957 172.252 0.877835C173.305 1.25393 174.208 1.85568 174.96 2.6831C175.637 3.51051 176.013 4.56358 176.013 5.91753C176.013 7.04582 175.712 7.94846 175.186 8.77587C174.509 9.75372 173.756 10.4307 172.779 10.8068C171.801 11.1829 170.372 11.4086 168.416 11.4086H164.88V16.2978C164.88 17.05 164.956 17.5013 165.031 17.6518C165.106 17.9526 165.257 18.1031 165.482 18.1783C165.708 18.2535 166.084 18.3287 166.686 18.3287H167.363V19.457H159.991V18.3287H160.443C161.044 18.3287 161.496 18.2535 161.721 18.1783C161.947 18.1031 162.097 17.8774 162.248 17.6518C162.398 17.4261 162.398 16.9748 162.398 16.373V3.28485C162.398 2.6831 162.323 2.23178 162.248 2.08134C162.173 1.85568 162.022 1.70525 161.797 1.63003C161.571 1.55481 161.12 1.47958 160.443 1.47958H159.991V0.426514H159.916ZM164.956 1.9309V9.97937H167.889C169.394 9.97937 170.447 9.82894 171.048 9.60328C171.65 9.3024 172.177 8.85108 172.553 8.24933C172.929 7.57235 173.155 6.82016 173.155 5.91753C173.155 4.93968 172.929 4.18749 172.478 3.51051C172.026 2.83354 171.425 2.45743 170.597 2.23177C170.071 2.08134 168.942 2.00613 167.363 2.00613H164.956V1.9309Z" fill="currentColor"/>
    <path d="M186.769 0.426514H189.026L194.968 16.4482C195.269 17.2757 195.57 17.8022 195.871 18.0278C196.172 18.2535 196.548 18.4039 197.074 18.4039H197.375V19.5322H190.53V18.4039C190.756 18.4039 190.982 18.4039 191.207 18.4039C191.659 18.4039 191.959 18.3287 192.035 18.2535C192.336 18.1031 192.411 17.8774 192.411 17.5765C192.411 17.3509 192.26 16.8996 192.035 16.1474L190.756 12.4616H183.836L182.331 16.5987C182.181 17.05 182.106 17.3509 182.106 17.5013C182.106 17.6518 182.181 17.8774 182.256 17.9526C182.331 18.1031 182.482 18.1783 182.632 18.2535C182.783 18.3287 183.084 18.3287 183.46 18.3287C183.685 18.3287 183.911 18.3287 184.061 18.3287V19.457H178.345V18.3287C178.871 18.3287 179.247 18.2535 179.473 18.1783C179.699 18.1031 179.924 17.8774 180.075 17.6518C180.225 17.4261 180.451 16.8996 180.752 16.1474L186.769 0.426514ZM184.362 11.1829H190.305L187.371 2.98397L184.362 11.1829Z" fill="currentColor"/>
    <path d="M200.836 0.426514H209.937C212.194 0.426514 213.698 0.501728 214.526 0.727387C215.729 1.02826 216.707 1.55481 217.384 2.307C218.061 3.05919 218.437 3.96182 218.437 5.09012C218.437 5.84231 218.287 6.59451 217.911 7.19626C217.535 7.79802 217.008 8.32456 216.256 8.77588C215.805 9.07675 215.203 9.30241 214.375 9.52807C215.353 9.67851 216.105 9.90416 216.632 10.205C217.384 10.5811 218.061 11.1077 218.512 11.8599C218.964 12.5368 219.189 13.3643 219.189 14.2669C219.189 15.1695 218.964 15.9217 218.512 16.6739C218.061 17.4261 217.459 18.0279 216.632 18.4792C215.805 18.9305 214.827 19.2314 213.774 19.3818C212.721 19.5322 211.592 19.6075 210.389 19.6075H200.836V18.4792H201.513C202.115 18.4792 202.566 18.404 202.792 18.1783C203.093 17.8774 203.318 17.5013 203.318 16.8244V3.51051C203.318 2.90876 203.243 2.45743 203.168 2.23178C203.093 2.00612 202.942 1.85568 202.716 1.70524C202.491 1.5548 202.115 1.55481 201.513 1.55481H200.836V0.426514ZM205.8 2.00613V9.00152H209.336C210.991 9.00152 212.119 8.92631 212.721 8.77588C213.698 8.55022 214.375 8.09889 214.902 7.49714C215.428 6.89538 215.654 6.14319 215.654 5.24055C215.654 4.48836 215.428 3.81139 214.977 3.28485C214.526 2.75832 213.924 2.38221 213.172 2.23178C212.645 2.08134 211.668 2.08134 210.088 2.08134H205.8V2.00613ZM205.8 10.2803V16.5987C205.8 17.2004 205.8 17.5765 205.876 17.727C205.951 17.8774 206.101 18.0279 206.327 18.1031C206.477 18.1783 206.929 18.1783 207.681 18.1783H209.561C211.442 18.1783 212.721 18.1031 213.548 17.8774C214.375 17.6518 214.977 17.2004 215.579 16.5987C216.105 15.9217 216.406 15.1695 216.406 14.1917C216.406 13.4395 216.181 12.6873 215.729 12.0855C215.278 11.4838 214.676 11.0325 213.849 10.7316C213.021 10.4307 211.592 10.3555 209.561 10.3555H205.8V10.2803Z" fill="currentColor"/>
    <path d="M227.162 1.63V0.501709H242.582V1.63H241.905C241.228 1.63 240.777 1.78044 240.551 2.0061C240.326 2.23176 240.25 2.75829 240.25 3.51048V16.5987C240.25 17.5013 240.326 18.0278 240.551 18.1783C240.777 18.4039 241.303 18.4791 242.131 18.4791H242.582L244.237 23.1427L243.033 23.5941C242.657 22.4658 242.056 21.5631 241.379 20.9614C240.702 20.3596 240.025 19.9835 239.498 19.8331C238.896 19.6827 237.919 19.6074 236.489 19.6074H228.591C227.087 19.6074 226.034 19.6826 225.357 19.9083C224.68 20.134 224.078 20.5101 223.476 21.1118C222.875 21.7136 222.423 22.541 222.047 23.5188L220.844 23.0675L222.499 18.4039C223.251 18.4039 223.853 18.3287 224.153 18.1783C224.454 18.0278 224.83 17.8022 225.056 17.5013C225.357 17.2004 225.507 16.7491 225.658 16.2978L229.494 3.88658C229.644 3.43527 229.72 3.13438 229.72 2.8335C229.72 2.00609 229.118 1.55478 227.914 1.55478H227.162V1.63ZM237.693 1.93087H231.901L227.388 16.5987C227.237 16.9748 227.237 17.2004 227.237 17.3508C227.237 17.6517 227.388 17.8774 227.613 17.9526C227.839 18.0278 228.29 18.103 228.967 18.103H235.888C236.565 18.103 237.016 18.0278 237.242 17.9526C237.467 17.8774 237.618 17.7269 237.618 17.5765C237.618 17.4261 237.693 16.8995 237.693 16.0721V1.93087Z" fill="currentColor"/>
    <path d="M254.767 0.426514H257.024L262.966 16.4482C263.267 17.2757 263.568 17.8022 263.869 18.0278C264.17 18.2535 264.546 18.4039 265.072 18.4039H265.373V19.5322H258.528V18.4039C258.754 18.4039 258.98 18.4039 259.205 18.4039C259.657 18.4039 259.958 18.3287 260.033 18.2535C260.334 18.1031 260.409 17.8774 260.409 17.5765C260.409 17.3509 260.258 16.8996 260.033 16.1474L258.754 12.4616H251.834L250.329 16.5987C250.179 17.05 250.104 17.3509 250.104 17.5013C250.104 17.6518 250.179 17.8774 250.254 17.9526C250.329 18.1031 250.48 18.1783 250.63 18.2535C250.781 18.3287 251.082 18.3287 251.458 18.3287C251.683 18.3287 251.909 18.3287 252.059 18.3287V19.457H246.343V18.3287C246.869 18.3287 247.245 18.2535 247.471 18.1783C247.697 18.1031 247.922 17.8774 248.073 17.6518C248.223 17.4261 248.449 16.8996 248.75 16.1474L254.767 0.426514ZM252.36 11.1829H258.303L255.369 2.98397L252.36 11.1829Z" fill="currentColor"/>
  </symbol>

  <symbol id="logo-mini" viewBox="0 0 82 55">
    <path fill-rule="evenodd" clip-rule="evenodd" d="M47.3547 50.7756L47.0881 51.975C50.8197 50.5535 49.176 46.9997 45.3556 47.6216L45.3112 47.1774C45.3112 46.7331 45.3112 46.822 45.3112 46.5554C45.2668 46.2889 45.2668 45.9779 45.0002 45.5781C44.4672 44.7341 44.0229 44.6008 43.1789 44.512L43.5343 45.8002C43.8008 47.7104 41.8462 48.8654 40.78 51.4864C39.7139 48.8654 37.8037 47.7104 38.0258 45.8002L38.3812 44.512C37.5816 44.6452 37.1373 44.7341 36.5598 45.5781C36.3377 45.9779 36.2933 46.2889 36.2489 46.5554C36.2045 46.8664 36.2489 46.7331 36.2489 47.1774L36.2045 47.6216C32.3841 46.9997 30.696 50.5535 34.472 51.975L34.2054 50.7756C33.9389 49.2652 35.0495 48.6433 36.2489 48.5989C38.9143 48.51 39.625 51.1754 40.3358 53.1745C40.5135 53.3966 40.6468 53.4854 40.78 53.4854C40.9133 53.4854 41.0466 53.3966 41.2243 53.1745C41.935 51.1754 42.6458 48.51 45.3112 48.5989C46.5106 48.6433 47.6212 49.2652 47.3547 50.7756Z"/>
    <path fill-rule="evenodd" clip-rule="evenodd" d="M51.9751 3.82039C49.2208 4.97539 40.8249 3.42058 41.5801 4.7977C44.5564 4.2202 51.4864 6.48578 53.7964 5.28635C55.1291 4.57558 55.0847 3.82039 55.8843 2.8875C56.5951 2.08789 57.4391 1.77693 57.4391 1.77693C55.3512 0.621924 55.2624 2.26558 54.6405 1.95462C54.2851 1.77693 54.907 0.621924 53.3522 0C54.1518 2.13231 53.441 3.19847 51.9751 3.82039Z"/>
    <path fill-rule="evenodd" clip-rule="evenodd" d="M25.7213 2.93195C26.5209 3.86483 26.4765 4.62003 27.8092 5.3308C30.1192 6.53022 37.0492 4.26464 40.0256 4.84214C40.7807 3.46503 32.3848 5.01984 29.6305 3.86483C28.1646 3.24291 27.4538 2.13233 28.209 0.0888672C26.6986 0.710791 27.2761 1.86579 26.9207 2.04349C26.3432 2.31002 26.21 0.710791 24.1221 1.86579C24.1665 1.77695 25.0105 2.13233 25.7213 2.93195Z"/>
    <path fill-rule="evenodd" clip-rule="evenodd" d="M46.422 3.02078C47.1772 2.84309 47.3549 2.44328 47.3993 2.04347C47.4437 1.64366 47.0884 1.24385 46.733 1.11059C46.5109 1.02174 46.2443 1.06616 46.1555 1.24385C45.8001 1.9102 46.6441 1.77693 46.733 2.04347C46.8218 2.39886 46.3332 2.57655 45.6224 2.53213C44.9116 2.4877 44.2009 2.17674 43.5345 2.31001C41.7576 2.6654 40.7803 3.8204 40.7803 3.8204C41.2245 3.68713 42.5128 3.02078 44.2453 3.10963C45.267 3.10963 45.9778 3.15405 46.422 3.02078Z"/>
    <path fill-rule="evenodd" clip-rule="evenodd" d="M35.2272 3.02077C35.7158 3.15404 36.3822 3.10962 37.4039 3.06519C39.1364 2.97635 40.4247 3.68712 40.8689 3.77596C40.8689 3.77596 39.8916 2.62096 38.1147 2.26558C37.4483 2.13231 36.7376 2.44327 36.0268 2.48769C35.3604 2.53212 34.8274 2.35442 34.9162 1.99904C35.0051 1.7325 35.8491 1.86577 35.4937 1.19942C35.4049 1.02173 35.1383 0.977305 34.9162 1.06615C34.5608 1.19942 34.2054 1.59923 34.2499 1.99904C34.2499 2.44327 34.472 2.84308 35.2272 3.02077Z"/>
    <path fill-rule="evenodd" clip-rule="evenodd" d="M46.7773 3.77592C48.4654 3.50939 49.265 3.90919 50.5089 3.37612C51.575 2.93189 51.9304 2.13227 52.8189 1.37708C51.9748 1.51034 51.3085 2.39881 50.3756 2.75419C49.576 3.06515 47.7991 3.50939 46.8218 3.68708L46.7773 3.77592Z"/>
    <path fill-rule="evenodd" clip-rule="evenodd" d="M31.1406 3.37623C32.3844 3.86488 33.184 3.5095 34.8721 3.77604V3.64277C33.8504 3.46507 32.1179 3.06527 31.3183 2.70988C30.3854 2.3545 29.719 1.51046 28.875 1.33276C29.719 2.13238 30.0744 2.97642 31.1406 3.37623Z"/>
    <path fill-rule="evenodd" clip-rule="evenodd" d="M58.1943 39.8476C59.216 38.2483 57.8389 37.3599 58.061 36.9601C58.4608 36.2937 59.7047 37.9818 60.9041 35.4941C60.9041 35.4941 59.8379 35.6718 58.5941 35.2276C57.1281 34.6945 56.6839 33.8505 54.907 33.8949C51.8418 33.9837 46.6887 40.6028 43.4014 41.8022C43.6235 43.7568 50.6868 37.0045 54.1518 36.6047C56.0175 36.3826 57.4391 37.1822 58.1943 39.8476Z"/>
    <path fill-rule="evenodd" clip-rule="evenodd" d="M38.0711 41.8022C34.7838 40.6028 29.6307 33.9837 26.5655 33.8949C24.7886 33.8505 24.2999 34.6945 22.8784 35.2276C21.6345 35.6718 20.5684 35.4941 20.5684 35.4941C21.7678 37.9818 23.0116 36.2937 23.4114 36.9601C23.6336 37.3599 22.2564 38.2483 23.2782 39.8476C23.9889 37.1378 25.4549 36.3826 27.3207 36.6047C30.7413 37.0489 37.8045 43.7568 38.0711 41.8022Z"/>
    <path fill-rule="evenodd" clip-rule="evenodd" d="M47.7552 43.7124C47.9329 43.8901 48.2439 43.7568 48.4215 43.5791C48.7325 43.2682 48.8213 42.6018 48.5548 42.1576C48.2883 41.7134 47.844 41.358 47 41.4913C46.4669 41.5801 45.7561 41.9355 44.7344 42.4686C43.0019 43.4015 41.2694 43.2238 40.7363 43.3126C40.7363 43.3126 42.4244 44.1566 44.4679 43.7124C45.2231 43.5347 45.8006 42.824 46.5113 42.4241C47.1777 42.0243 47.7996 41.9799 47.9329 42.4686C47.9773 42.824 47 43.0905 47.7552 43.7124Z"/>
    <path fill-rule="evenodd" clip-rule="evenodd" d="M34.4726 41.4913C33.5841 41.358 33.1399 41.7134 32.9177 42.1576C32.6512 42.6018 32.7845 43.2238 33.051 43.5791C33.2287 43.7568 33.4952 43.8901 33.7174 43.7124C34.4281 43.0905 33.4952 42.824 33.5841 42.513C33.6729 42.0688 34.3393 42.1132 35.0056 42.4686C35.7164 42.8684 36.2495 43.5791 37.0491 43.7568C39.0926 44.2011 40.7806 43.357 40.7806 43.357C40.2476 43.2682 38.5595 43.4459 36.7826 42.513C35.7164 41.9355 35.0501 41.5801 34.4726 41.4913Z"/>
    <path fill-rule="evenodd" clip-rule="evenodd" d="M53.3081 38.7814C54.4631 38.6037 55.7069 39.1368 56.6398 38.7814C55.2627 38.4705 54.3298 37.8485 52.9971 38.0262C51.4423 38.2483 50.9092 39.1368 49.0879 39.8476L49.1767 39.9364C50.3317 39.4922 52.3308 38.9147 53.3081 38.7814Z"/>
    <path fill-rule="evenodd" clip-rule="evenodd" d="M24.7881 38.7813C25.721 39.1367 26.9648 38.6037 28.1198 38.7813C29.1416 38.959 31.1406 39.5365 32.2067 39.9363L32.2956 39.8475C30.4742 39.1367 29.9856 38.2483 28.3864 38.0262C27.0981 37.804 26.1652 38.4704 24.7881 38.7813Z"/>
    <path fill-rule="evenodd" clip-rule="evenodd" d="M36.2939 39.0479C37.7154 40.0252 39.2258 40.8692 40.7806 41.58L40.825 41.6244L40.8695 41.58C53.9743 35.7606 57.8835 23.8108 58.1056 10.2617V10.1728L58.0168 10.1284C47.6218 4.97534 34.1171 5.464 23.6777 10.1284L23.5889 10.1728V10.2617C23.5889 21.2786 26.8762 32.4733 36.2939 39.0479ZM57.0839 10.8392C56.773 23.4998 53.1303 34.8277 40.8695 40.4694C29.1862 35.0498 24.7883 23.0556 24.6994 10.8836C34.6058 6.619 47.222 6.17476 57.0839 10.8392Z"/>
    <path fill-rule="evenodd" clip-rule="evenodd" d="M40.8689 39.8475C52.641 34.3391 56.1949 23.411 56.5503 11.1946C46.9993 6.79672 34.8718 7.24096 25.2764 11.239C25.4096 22.9667 29.6298 34.5168 40.8689 39.8475ZM55.9283 11.55C55.5285 23.3221 52.1079 33.806 40.8689 39.2256C30.1629 33.9837 26.076 22.9223 25.8094 11.5944C35.0939 7.86288 46.6883 7.46307 55.9283 11.55Z"/>
    <path fill-rule="evenodd" clip-rule="evenodd" d="M4.35347 41.0026C5.33078 40.6472 5.10866 40.7804 5.9527 40.6916C5.86385 40.9581 4.75327 43.0016 6.04154 42.5129C7.90732 41.8022 8.57367 40.7804 11.1946 40.9581C13.5491 41.0914 15.1927 41.9354 16.9252 43.1349C18.7466 44.4231 20.9677 45.3116 23.3221 45.7114C26.0764 46.2001 28.2975 45.8003 31.4516 43.8456C31.0518 43.4458 31.0518 42.7351 31.1406 42.3797C28.1198 44.1122 26.3429 44.512 23.722 43.7568C21.5896 43.1349 19.7239 41.7133 18.5689 40.5583C18.0802 40.0697 17.5471 39.581 16.9696 39.1368C14.9262 37.4487 12.3496 35.5829 9.68424 35.2275C8.35155 35.0499 7.50751 34.8722 6.08597 34.961C5.68616 35.0054 5.19751 34.961 5.01981 35.4497C5.3752 35.7606 5.55289 35.7606 6.04154 35.8939L4.70885 36.3826H4.66443C4.08693 36.6047 2.4877 37.5376 2.08789 37.9818C1.68808 38.426 1.95462 38.1595 1.95462 38.2927C2.22116 38.0262 2.70981 37.8485 3.0652 37.7597L3.24289 37.7152C6.61905 36.6935 10.706 37.271 13.9933 38.9147C15.1483 39.4922 16.7919 40.5583 18.3023 41.891C18.48 42.0687 18.3912 42.2464 18.2135 42.1131C16.481 40.4695 12.8827 38.5593 10.4394 37.9818C7.77405 37.3599 4.57558 37.3599 2.44327 38.426L1.95462 38.6481C1.06616 39.1812 0.755195 39.3589 0.355386 40.4251C0.177694 40.9137 0 41.8466 0 42.3797C0 42.8683 0.133269 43.6235 0.266538 44.1122C0.488654 43.9789 1.55481 41.9799 4.35347 41.0026Z"/>
    <path fill-rule="evenodd" clip-rule="evenodd" d="M63.081 40.5583C61.9259 41.7133 60.0602 43.1349 57.9279 43.7568C55.2625 44.5564 53.4856 44.1122 50.5092 42.3797C50.598 42.7351 50.5981 43.4458 50.1982 43.8456C53.3523 45.8003 55.5734 46.2001 58.3277 45.7114C60.6821 45.3116 62.9033 44.3787 64.7246 43.1349C66.4571 41.9354 68.1008 41.0914 70.4552 40.9581C73.0762 40.7804 73.7869 41.8022 75.6083 42.5129C76.8521 43.0016 75.786 40.9581 75.6971 40.6916C76.5856 40.8249 76.319 40.6916 77.2964 41.0026C80.095 41.9354 81.1612 43.9789 81.4277 44.1122C81.561 43.6235 81.6942 42.8683 81.6942 42.3797C81.6942 41.8466 81.561 40.9137 81.3389 40.4251C80.9391 39.3589 80.6725 39.1812 79.7396 38.6481L79.251 38.426C77.1187 37.3599 73.8758 37.3599 71.2548 37.9818C68.8115 38.5593 65.2133 40.4251 63.4808 42.1131C63.3031 42.2464 63.2142 42.0243 63.3919 41.891C64.9023 40.5583 66.546 39.4922 67.701 38.9147C70.9883 37.271 75.0752 36.6935 78.4514 37.7152L78.629 37.7597C78.9844 37.8485 79.4287 38.0706 79.7396 38.2927C79.7396 38.1595 80.0062 38.3816 79.6063 37.9818C79.2065 37.5376 77.5629 36.6047 77.0298 36.3826H76.9854L75.6527 35.8939C76.1413 35.7606 76.2746 35.7606 76.6744 35.4497C76.4523 34.961 75.9637 35.0054 75.6083 34.961C74.1867 34.8722 73.3427 35.0499 72.01 35.2275C69.3002 35.5829 66.7681 37.4487 64.7246 39.1368C64.1027 39.5366 63.614 40.0252 63.081 40.5583Z"/>
    <path fill-rule="evenodd" clip-rule="evenodd" d="M10.7946 24.2994C11.15 23.0556 11.7275 22.0338 12.5271 20.9677C13.0158 20.3458 14.6594 18.6133 15.3258 18.791C15.0148 19.1463 14.3041 19.5461 13.9487 19.9015C13.0158 20.79 12.3494 21.5452 11.7719 22.7446L11.3277 23.7663C10.9723 24.8769 10.8391 25.6321 10.8391 26.7871C10.8391 28.2087 11.15 29.4969 11.8164 30.8296C12.1717 31.5848 13.0602 32.6065 13.5933 33.2285C13.5044 32.651 13.4156 31.2739 13.7266 30.0744C12.1717 28.875 12.4383 26.3429 12.9714 24.6548C13.1935 23.8996 13.6377 23.1 14.2152 22.3448C15.2814 20.9233 15.8589 20.6123 17.236 19.946C17.5914 19.7683 17.7691 19.946 17.9912 19.7683C18.2133 19.5461 18.2577 19.4129 18.6575 19.2352C19.9014 18.6577 20.4344 19.4573 20.701 19.5461C20.4789 19.1019 20.4345 19.0575 20.0791 18.8354C19.3239 18.4356 18.5687 18.3911 17.7246 18.4356C17.9468 18.169 18.8352 18.2579 19.1018 18.2579C19.9458 18.3467 21.1896 18.8798 21.0564 19.946C21.012 20.3458 20.8343 20.9677 20.4345 21.1454C20.0346 21.3231 20.0791 21.2786 20.1235 21.1898C20.3012 20.9233 20.39 21.0565 20.5677 20.7011C20.7454 20.3013 20.6121 20.2125 20.4789 19.8571C20.1679 19.1908 18.8796 18.9686 18.2133 20.0348C17.236 21.7229 19.4571 23.5442 21.3673 21.8561C21.7671 21.5008 22.0781 20.9233 22.167 20.479C22.3002 20.0348 22.3446 19.3685 22.1225 18.8798C21.5894 17.7248 21.4562 17.3694 20.1235 16.7031C19.7681 16.5254 19.6348 16.4809 19.1906 16.3921C18.7464 16.3033 18.6575 16.3033 18.2133 16.2588C15.9477 16.17 13.6821 17.5027 12.305 19.3685C11.9052 19.946 11.5942 20.5235 11.3721 21.101C11.0167 21.9006 10.4837 24.255 10.7058 25.099C10.6614 25.0546 10.7502 24.566 10.7946 24.2994Z"/>
    <path fill-rule="evenodd" clip-rule="evenodd" d="M69.4779 19.5018C68.1007 17.636 65.8352 16.3033 63.5696 16.3921C63.1254 16.3921 62.9921 16.4366 62.5923 16.5254C62.1925 16.6142 62.0592 16.6587 61.6594 16.8364C60.3267 17.5027 60.1934 17.8581 59.6604 19.0131C59.4382 19.5018 59.4827 20.1681 59.6159 20.6123C59.7492 21.0566 60.0158 21.6341 60.4156 21.9894C62.3258 23.6775 64.5469 21.8118 63.5696 20.1681C62.9477 19.1019 61.615 19.3241 61.304 19.9904C61.1263 20.3014 61.0375 20.3902 61.2152 20.8344C61.3484 21.1898 61.4817 21.0566 61.6594 21.3231C61.7038 21.4119 61.7482 21.5008 61.3484 21.2787C60.9486 21.101 60.7709 20.4791 60.7265 20.0793C60.5933 19.0131 61.8371 18.5244 62.6811 18.3912C62.9921 18.3467 63.8361 18.2579 64.0582 18.5689C63.2142 18.5244 62.459 18.5689 61.7038 18.9687C61.3484 19.1908 61.304 19.1908 61.0819 19.6794C61.3484 19.5462 61.8815 18.791 63.1254 19.3685C63.5252 19.5462 63.5252 19.7239 63.7917 19.9016C64.0138 20.1237 64.1915 19.946 64.5469 20.0793C65.924 20.7456 66.4571 21.0566 67.5677 22.4781C68.1452 23.2333 68.545 24.0329 68.8115 24.7881C69.3446 26.4762 69.6111 29.0083 68.0563 30.2077C68.4117 31.4072 68.3229 32.7398 68.1896 33.3618C68.6783 32.7398 69.6111 31.7181 69.9665 30.9629C70.5884 29.6302 70.9438 28.342 70.9438 26.9204C70.9438 25.721 70.8106 25.0102 70.4552 23.8996L70.0109 22.8779C69.4334 21.6785 68.7671 20.9233 67.8342 20.0348C67.4344 19.6794 66.7681 19.2796 66.4571 18.9243C67.079 18.7466 68.7671 20.4791 69.2557 21.101C70.0554 22.1227 70.6329 23.1889 70.9882 24.4327C71.0771 24.6548 71.1215 25.1879 71.2548 25.3656C71.4769 24.5216 70.9438 22.1671 70.5884 21.3675C70.1442 20.6568 69.8777 20.0793 69.4779 19.5018Z"/>
    <path fill-rule="evenodd" clip-rule="evenodd" d="M16.9249 35.9828C17.6357 37.8485 20.2567 39.7587 20.5232 39.6254C20.4788 39.3145 18.7019 38.2928 18.924 35.1831C18.9684 34.6501 19.1461 33.8504 19.3238 33.3618C19.3682 33.2285 19.4126 33.1397 19.4571 32.962C19.5015 32.7843 19.5459 32.6954 19.6348 32.5177C19.7236 32.2512 19.768 32.2956 19.7236 32.0735C18.5686 31.7181 18.5686 32.3401 18.2576 32.6066C18.3465 32.4733 18.3021 32.3845 18.3909 32.2512C18.7019 31.6737 18.924 32.1179 19.4571 31.3183C20.0346 30.4299 20.7453 27.2314 20.0346 26.4762C19.1461 27.9866 17.0138 27.1425 15.8144 29.4081C15.7255 29.5414 15.6811 29.6302 15.6811 29.6302C15.5923 29.6302 15.9032 28.6974 15.9921 28.5641C16.3474 27.6756 15.4146 27.4091 15.1924 27.8977C14.0819 30.9629 13.3711 36.6491 18.2576 38.4704C17.9023 37.9374 17.3248 37.4487 16.9694 36.7379C16.1698 35.272 15.7255 32.2956 16.5696 30.8297C16.4807 31.3183 16.3919 31.5404 16.3474 32.0735C16.2142 33.3618 16.4363 34.6945 16.9249 35.9828Z"/>
    <path fill-rule="evenodd" clip-rule="evenodd" d="M64.7243 35.9827C65.2129 34.6945 65.435 33.3618 65.3018 32.0291C65.2573 31.5404 65.1685 31.2739 65.0796 30.7852C65.9237 32.2512 65.4794 35.2275 64.6798 36.6935C64.3244 37.4043 63.7469 37.8929 63.3916 38.426C68.2781 36.5602 67.5673 30.9185 66.4568 27.8533C66.2346 27.3646 65.2573 27.5868 65.6571 28.5196C65.746 28.6529 66.1014 29.5414 65.9681 29.5858C65.9681 29.5858 65.9237 29.5414 65.8348 29.3637C64.6354 27.0981 62.5031 27.9421 61.6146 26.4318C60.9039 27.2314 61.5702 30.3854 62.1921 31.2739C62.7252 32.0735 62.9473 31.6293 63.2583 32.2068C63.3471 32.3845 63.3471 32.4289 63.3916 32.5622C63.0806 32.2956 63.0806 31.6737 61.9256 32.0291C61.9256 32.2068 61.9256 32.2068 62.0144 32.4733C62.0589 32.651 62.1033 32.7398 62.1921 32.9175C62.2366 33.0952 62.281 33.2285 62.3254 33.3173C62.5031 33.806 62.6808 34.6056 62.7252 35.1387C62.9473 38.2483 61.1704 39.27 61.126 39.581C61.3925 39.7587 64.0135 37.8485 64.7243 35.9827Z"/>
    <path fill-rule="evenodd" clip-rule="evenodd" d="M12.2164 18.7911C12.5273 18.4357 12.8383 18.0359 13.2381 17.7693C14.8373 16.4811 15.4593 16.5699 16.1256 16.1701C16.6143 15.8591 16.9252 15.5926 17.5027 15.326C18.8798 14.7041 19.1464 14.3043 19.8571 13.3714C19.9016 14.7041 17.5471 15.4593 16.8364 15.9924L18.2579 15.948C18.8798 15.9924 19.0131 16.1701 19.6795 15.6814C20.1237 15.3705 20.5235 15.0151 20.9677 14.7041C21.5008 14.3487 21.6785 14.0378 21.8118 13.638C21.6341 13.4603 21.412 13.7268 21.4564 13.5047C21.5896 13.327 22.0783 12.7939 22.3893 12.3497C22.6114 12.0387 23.0112 11.3724 22.4781 11.017C22.0339 10.8837 21.2343 11.6389 20.9233 11.9055C21.1898 11.0614 21.3675 11.9055 21.6785 10.3062C21.9895 8.707 20.79 7.15219 19.5018 7.28546C19.8127 7.72969 19.9016 7.64085 20.2125 8.30719C20.7456 9.41777 20.5679 10.4395 19.946 11.5057C17.9914 14.8374 13.7268 15.0595 11.6833 18.258C11.2835 18.8799 10.4394 20.3903 10.8393 21.1455C11.3723 20.0349 11.4612 19.7684 12.2164 18.7911Z"/>
    <path fill-rule="evenodd" clip-rule="evenodd" d="M60.3261 13.4603C60.415 13.6824 60.1485 13.4158 59.9708 13.5935C60.104 14.0378 60.2817 14.3487 60.8148 14.7041C61.259 15.0151 61.6588 15.3705 62.1031 15.6814C62.7694 16.1701 62.9027 15.9924 63.5246 15.948L64.9462 15.9924C64.2354 15.4149 61.9254 14.7041 61.9254 13.3714C62.6362 14.3043 62.9027 14.7041 64.2798 15.326C64.8573 15.5926 65.1683 15.8591 65.6569 16.1701C66.2788 16.5699 66.9452 16.481 68.5444 17.7693C68.8998 18.0803 69.2552 18.4356 69.5662 18.791C70.3214 19.7683 70.4102 20.0349 70.8989 21.0566C71.2987 20.3014 70.4991 18.791 70.0548 18.1691C67.9669 14.9706 63.7023 14.7485 61.7921 11.4168C61.1702 10.3506 60.9925 9.3289 61.5256 8.21833C61.8365 7.55198 61.9254 7.68525 62.2363 7.19659C60.9481 7.06332 59.7486 8.61813 60.0596 10.2174C60.3706 11.8166 60.5483 10.9726 60.8148 11.8166C60.5038 11.5501 59.7042 10.7504 59.26 10.9281C58.7269 11.2835 59.1267 11.9499 59.3488 12.2608C59.7042 12.7495 60.2373 13.2826 60.3261 13.4603Z"/>
    <path fill-rule="evenodd" clip-rule="evenodd" d="M21.9899 24.2107C21.3235 24.3439 20.7905 25.0103 20.7016 25.5878C20.6572 25.9432 20.7905 26.2985 21.1458 26.343C22.3897 26.5651 21.8122 25.3657 22.2564 25.1435C22.7895 24.8326 23.3226 25.5433 23.5003 26.5207C23.7224 27.5424 23.5003 28.7418 23.9889 29.6303C25.3216 32.0735 27.5872 33.0064 27.5872 33.0064C27.2318 32.4289 25.5881 30.8741 24.9662 28.2976C24.6108 26.8316 24.3887 25.8099 23.9889 25.188C23.4114 24.2106 22.6562 24.1218 21.9899 24.2107Z"/>
    <path fill-rule="evenodd" clip-rule="evenodd" d="M57.6612 29.6302C58.1499 28.7418 57.9278 27.5424 58.1499 26.5206C58.3276 25.5433 58.8607 24.8325 59.3938 25.1435C59.7936 25.3656 59.2605 26.5206 60.5043 26.3429C60.8597 26.2985 60.993 25.9431 60.9486 25.5877C60.8597 25.0102 60.3266 24.3439 59.6603 24.2106C58.9939 24.0773 58.2388 24.2106 57.6168 25.1879C57.217 25.8098 56.9949 26.8316 56.6395 28.2975C56.062 30.8297 54.4184 32.4289 54.0186 33.0064C54.0186 33.0508 56.3286 32.0735 57.6612 29.6302Z"/>
    <path fill-rule="evenodd" clip-rule="evenodd" d="M44.0674 53.5299C52.2857 58.2388 57.1278 47.3551 69.9661 47.2218C56.1949 41.6689 54.2403 54.0186 44.0674 53.5299Z"/>
    <path fill-rule="evenodd" clip-rule="evenodd" d="M12.5713 47.2218C25.4096 47.3551 30.2517 58.1943 38.47 53.5299C28.2971 54.0186 26.3425 41.6689 12.5713 47.2218Z"/>
  </symbol>
  
  <symbol id="logo-abbr" width="82" height="55">
    <path d="M43.7127 14.8372C43.7127 14.9705 43.6239 15.1482 43.4017 15.4147C43.1796 15.6813 42.8242 15.9923 42.2912 16.3921C41.8469 16.7474 41.4471 17.0584 41.0917 17.2805C40.7808 17.5026 40.4698 17.7248 40.2033 17.9024C39.9367 18.0801 39.7146 18.2578 39.4925 18.3911C39.2704 18.5244 39.0483 18.7021 38.7817 18.9242C38.8706 19.1019 39.0039 19.4128 39.0927 19.8126C39.226 20.2125 39.3148 20.6123 39.4481 21.0565C39.5369 21.3675 39.6258 21.6784 39.7146 21.9894C39.8035 22.3003 39.8923 22.5669 39.9812 22.8334C40.07 23.1 40.2033 23.2776 40.3365 23.4109C40.4698 23.5442 40.6031 23.633 40.7364 23.633C40.8696 23.633 41.0029 23.5886 41.1806 23.5442C41.3583 23.4998 41.4471 23.4109 41.5804 23.2776L41.6692 23.4109C41.6248 23.4553 41.5804 23.5442 41.4471 23.633C41.3139 23.7663 41.225 23.8551 41.0473 23.9884C40.914 24.1217 40.7363 24.2105 40.5587 24.2994C40.381 24.3882 40.2477 24.4327 40.07 24.4327C39.8923 24.4327 39.7146 24.3882 39.5813 24.255C39.4481 24.1217 39.3592 23.944 39.226 23.7219C39.1371 23.4998 39.0483 23.2332 38.9594 22.9223C38.8706 22.6113 38.7817 22.3003 38.6485 21.945C38.604 21.8117 38.5152 21.5896 38.4708 21.323C38.4263 21.0565 38.3375 20.79 38.2487 20.5234C38.1598 20.2569 38.071 19.9903 37.9821 19.7682C37.8933 19.5461 37.8044 19.3684 37.7156 19.324C37.5379 19.7682 37.3602 20.2569 37.1825 20.7011C37.0492 21.1009 36.8715 21.5007 36.6938 21.9005C36.5162 22.3003 36.3829 22.7001 36.2496 23.0111C36.1608 23.1888 36.1163 23.3221 36.0719 23.4553C36.0275 23.5886 35.9831 23.6775 35.8942 23.7663C35.8498 23.8551 35.8054 23.8996 35.761 23.9884C35.7165 24.0328 35.6721 24.0773 35.5833 24.1217C35.45 24.2105 35.3167 24.255 35.1835 24.3438C35.0502 24.3882 34.9169 24.4327 34.8281 24.4327C34.7392 24.4327 34.6948 24.4326 34.6948 24.3882C34.6948 24.3438 34.6504 24.3438 34.6504 24.2994C34.6504 24.255 34.6948 24.1661 34.7392 24.0328C34.7837 23.8996 34.9169 23.6775 35.0502 23.4109C35.2723 22.9223 35.4944 22.478 35.6277 22.1226C35.8054 21.7673 35.9387 21.3675 36.0719 21.0565C36.2052 20.7011 36.3385 20.3457 36.4717 19.9903C36.605 19.635 36.7827 19.2351 36.9604 18.7909C37.0937 18.4355 37.2269 18.0801 37.4046 17.6803C37.5379 17.2805 37.6712 16.9696 37.8044 16.6142C37.9377 16.3032 38.0265 15.9923 38.1154 15.7701C38.2042 15.548 38.2487 15.3703 38.2931 15.3259C38.2042 15.3259 38.071 15.3259 37.9821 15.2815C37.8933 15.2815 37.8044 15.2815 37.7156 15.2371C37.6267 15.2371 37.5379 15.2371 37.449 15.2371C37.1381 15.2371 36.7383 15.2371 36.294 15.2815C35.8498 15.3259 35.3612 15.3703 34.8281 15.5036C34.295 15.6369 33.7175 15.859 33.0956 16.1255C32.4737 16.3921 31.8073 16.7919 31.141 17.2805C30.8744 17.4582 30.6079 17.6803 30.4302 17.9024C30.2081 18.1246 30.0304 18.3023 29.8527 18.5244C29.7194 18.7465 29.5861 18.9242 29.4973 19.1019C29.4085 19.2796 29.364 19.4573 29.364 19.6349C29.364 19.7238 29.364 19.7682 29.4085 19.8571C29.4529 19.9459 29.5417 19.9459 29.675 19.9459C29.8083 19.9459 29.8971 19.9459 29.9415 19.9015C30.0304 19.8571 30.1192 19.8126 30.2525 19.7682V19.9459C30.0748 20.168 29.8083 20.3013 29.5861 20.4346C29.3196 20.5234 29.0975 20.5678 28.9642 20.5678C28.6088 20.5678 28.3867 20.3901 28.3867 20.0348C28.3867 19.7682 28.4756 19.5017 28.6977 19.1907C28.9198 18.8798 29.1419 18.5688 29.4529 18.2578C29.7638 17.9469 30.0748 17.6803 30.4302 17.4138C30.7856 17.1473 31.0965 16.9251 31.3631 16.7474C32.0738 16.3032 32.7846 15.9478 33.451 15.6813C34.1173 15.4148 34.7392 15.1926 35.3612 15.0594C35.9831 14.9261 36.5606 14.8372 37.0937 14.7928C37.6267 14.7484 38.1598 14.7484 38.604 14.7484C38.7373 14.7484 38.915 14.7484 39.0927 14.7928C39.2704 14.8372 39.4037 14.8372 39.4925 14.8372L37.7156 19.1907C38.0265 18.9686 38.3375 18.7465 38.5596 18.5688C38.7817 18.3911 39.0483 18.2134 39.2704 18.0357C39.4925 17.858 39.759 17.6803 39.9812 17.5026C40.2033 17.3249 40.5142 17.1028 40.8252 16.8807C40.9585 16.7919 41.0917 16.6586 41.2694 16.5253C41.4027 16.3921 41.536 16.2588 41.6692 16.1255C41.8025 15.9923 41.8914 15.859 41.9802 15.7701C42.069 15.6369 42.1135 15.548 42.1135 15.4147C42.1135 15.3259 42.069 15.2371 41.9802 15.2371C41.8914 15.1926 41.8469 15.1926 41.8025 15.1926V15.1038C42.069 14.9705 42.3356 14.8372 42.6021 14.7928C42.8687 14.7484 43.0464 14.704 43.1796 14.704C43.2685 14.704 43.3129 14.704 43.4017 14.7484C43.6683 14.6596 43.7127 14.7484 43.7127 14.8372Z" fill="currentColor"/>
    <path d="M48.1102 26.2984C48.1102 27.6755 47.0441 29.0971 44.8229 29.0971C44.512 29.0971 43.2237 29.0082 43.0904 29.0082C43.046 29.0082 42.202 29.0526 41.8021 29.0526C41.6689 29.0526 41.58 29.0082 41.58 28.9638C41.58 28.9194 41.6245 28.8749 41.6689 28.8749C41.8021 28.8749 41.9354 28.8749 42.0687 28.8305C42.2908 28.7861 42.3352 28.6528 42.4241 28.253C42.4685 27.8976 42.5129 26.8759 42.5129 25.2767V23.0111C42.5129 20.8344 42.5129 20.3013 42.4685 20.0792C42.4241 19.7682 42.3352 19.5905 41.9354 19.5017C41.8466 19.4572 41.6245 19.4572 41.4912 19.4572C41.4468 19.4572 41.4023 19.4128 41.4023 19.3684C41.4023 19.2795 41.4468 19.2795 41.6245 19.2795C42.202 19.2795 43.0016 19.324 43.0904 19.324C43.4014 19.324 43.89 19.2795 44.512 19.2795C46.6443 19.2795 47.0885 20.5678 47.0885 21.2342C47.0885 22.3003 46.4666 22.9222 45.8891 23.5442C46.822 23.8551 48.1102 24.788 48.1102 26.2984ZM43.5791 23.3665C43.5791 23.4553 43.6235 23.4997 43.6679 23.4997C43.7568 23.4997 43.9789 23.5442 44.4675 23.5442C45.1783 23.5442 45.356 23.4997 45.6225 23.1888C45.8891 22.8778 46.0668 22.4336 46.0668 21.9005C46.0668 20.8344 45.5781 19.6793 44.3343 19.6793C44.201 19.6793 43.9345 19.6793 43.7123 19.7238C43.5791 19.7682 43.5791 19.7682 43.5791 19.857V23.3665ZM43.5791 27.1424C43.5791 28.1197 43.6235 28.3419 44.0233 28.5196C44.3787 28.6972 44.9118 28.6972 45.1783 28.6972C45.8891 28.6972 46.9997 28.3419 46.9997 26.8759C46.9997 26.1207 46.7331 24.9657 45.7558 24.2549C45.2672 23.8995 44.8229 23.8551 44.3787 23.8551C43.6235 23.8551 43.6235 23.8551 43.6235 23.944V27.1424H43.5791Z" fill="currentColor"/>
  </symbol>
</svg>
